<?xml version="1.0" standalone="no"?><!DOCTYPE svg PUBLIC "-//W3C//DTD SVG 1.1//EN" "http://www.w3.org/Graphics/SVG/1.1/DTD/svg11.dtd"><svg width="100%" height="100%" viewBox="0 0 180 60" version="1.1" xmlns="http://www.w3.org/2000/svg" xmlns:xlink="http://www.w3.org/1999/xlink" xml:space="preserve" style="fill-rule:evenodd;clip-rule:evenodd;stroke-linejoin:round;stroke-miterlimit:1.41421;"><path id="kmutt" d="M47.313,14.658c-0.743,0 -1.346,0.602 -1.346,1.344c0,0.742 0.603,1.344 1.346,1.344c0.745,0 1.347,-0.602 1.347,-1.344c0,-0.742 -0.602,-1.344 -1.347,-1.344M43.65,14.658c-0.743,0 -1.345,0.602 -1.345,1.344c0,0.742 0.602,1.344 1.345,1.344c0.744,0 1.347,-0.602 1.347,-1.344c0,-0.742 -0.603,-1.344 -1.347,-1.344M43.65,7.329c-0.743,0 -1.345,0.601 -1.345,1.344c0,0.742 0.602,1.344 1.345,1.344c0.744,0 1.347,-0.602 1.347,-1.344c0,-0.743 -0.603,-1.344 -1.347,-1.344M50.978,17.346c0.743,0 1.345,-0.602 1.345,-1.344c0,-0.742 -0.602,-1.344 -1.345,-1.344c-0.743,0 -1.345,0.602 -1.345,1.344c0,0.742 0.602,1.344 1.345,1.344M36.323,10.017c0.743,0 1.345,-0.602 1.345,-1.344c0,-0.743 -0.602,-1.344 -1.345,-1.344c-0.745,0 -1.346,0.601 -1.346,1.344c0,0.742 0.601,1.344 1.346,1.344M43.65,18.323c-0.743,0 -1.345,0.6 -1.345,1.343c0,0.742 0.602,1.344 1.345,1.344c0.744,0 1.347,-0.602 1.347,-1.344c0,-0.743 -0.603,-1.343 -1.347,-1.343M36.323,17.346c0.743,0 1.345,-0.602 1.345,-1.344c0,-0.742 -0.602,-1.344 -1.345,-1.344c-0.745,0 -1.346,0.602 -1.346,1.344c0,0.742 0.601,1.344 1.346,1.344M36.323,6.353c0.743,0 1.345,-0.601 1.345,-1.344c0,-0.743 -0.602,-1.345 -1.345,-1.345c-0.745,0 -1.346,0.602 -1.346,1.345c0,0.743 0.601,1.344 1.346,1.344M36.323,2.689c0.743,0 1.345,-0.602 1.345,-1.345c0,-0.742 -0.602,-1.344 -1.345,-1.344c-0.745,0 -1.346,0.602 -1.346,1.344c0,0.743 0.601,1.345 1.346,1.345M36.323,13.682c0.743,0 1.345,-0.602 1.345,-1.345c0,-0.742 -0.602,-1.343 -1.345,-1.343c-0.745,0 -1.346,0.601 -1.346,1.343c0,0.743 0.601,1.345 1.346,1.345M39.986,7.329c-0.742,0 -1.345,0.601 -1.345,1.344c0,0.742 0.603,1.344 1.345,1.344c0.744,0 1.346,-0.602 1.346,-1.344c0,-0.743 -0.602,-1.344 -1.346,-1.344M43.65,21.987c-0.743,0 -1.345,0.603 -1.345,1.345c0,0.742 0.602,1.343 1.345,1.343c0.744,0 1.347,-0.601 1.347,-1.343c0,-0.742 -0.603,-1.345 -1.347,-1.345M32.658,10.017c0.744,0 1.346,-0.602 1.346,-1.344c0,-0.743 -0.602,-1.344 -1.346,-1.344c-0.743,0 -1.345,0.601 -1.345,1.344c0,0.742 0.602,1.344 1.345,1.344M39.986,14.658c-0.742,0 -1.345,0.602 -1.345,1.344c0,0.742 0.603,1.344 1.345,1.344c0.744,0 1.346,-0.602 1.346,-1.344c0,-0.742 -0.602,-1.344 -1.346,-1.344M28.994,10.017c0.743,0 1.347,-0.602 1.347,-1.344c0,-0.743 -0.604,-1.344 -1.347,-1.344c-0.742,0 -1.345,0.601 -1.345,1.344c0,0.742 0.603,1.344 1.345,1.344M43.65,10.994c-0.743,0 -1.345,0.601 -1.345,1.343c0,0.743 0.602,1.345 1.345,1.345c0.744,0 1.347,-0.602 1.347,-1.345c0,-0.742 -0.603,-1.343 -1.347,-1.343M3.193,32.056l2.624,-2.19l7.216,9.246l3.953,0l-8.878,-10.994l8.919,-7.905l-3.95,0l-9.884,8.724l0,-8.724l-3.193,0l0,18.899l3.193,0l0,-7.056ZM13.902,50.489c0,3.945 -1.516,5.81 -5.394,5.81c-3.886,0 -5.402,-1.865 -5.402,-5.81l0,-10.178l-3.106,0l0,11.132c0,4.747 3.017,7.69 8.508,7.69c5.482,0 8.501,-2.943 8.501,-7.69l0,-8.706l5.992,0l0,16.428l3.161,0l0,-16.428l4.839,0l0,16.428l3.158,0l0,-16.428l4.786,0l0,-2.426l-25.043,0l0,10.178ZM28.655,35.141l-6.408,-14.928l-4.018,0l0,18.899l3.162,0l0,-13.417l5.872,13.417l2.683,0l5.843,-13.404l0,13.404l3.163,0l0,-18.899l-3.99,0l-6.307,14.928ZM100.493,42.056l0.017,0l0,0.681l0.664,0l0,-4.265l-0.706,0l0,2.408c0,0.767 -0.411,1.337 -1.261,1.337c-0.535,0 -0.865,-0.338 -0.865,-0.862l0,-2.883l-0.702,0l0,2.8c0,0.919 0.346,1.561 1.467,1.561c0.611,0 1.089,-0.247 1.386,-0.777M89.311,42.784c0.538,0 1.096,-0.254 1.327,-0.776l0.017,0l0,0.281c0,0.957 -0.363,1.617 -1.278,1.617c-0.463,0 -1.072,-0.179 -1.105,-0.692l-0.701,0c0.037,0.932 0.967,1.254 1.763,1.254c1.347,0 1.982,-0.71 1.982,-2.096l0,-3.9l-0.661,0l0,0.61l-0.007,0c-0.257,-0.469 -0.733,-0.712 -1.271,-0.712c-1.475,0 -1.972,1.247 -1.972,2.254c0,1.164 0.634,2.16 1.906,2.16M89.409,38.992c0.883,0 1.211,0.774 1.211,1.526c0,0.797 -0.344,1.649 -1.265,1.649c-0.927,0 -1.205,-0.859 -1.205,-1.627c0,-0.813 0.364,-1.548 1.259,-1.548M111.339,41.488c0,-0.825 -0.692,-1.054 -1.392,-1.211c-0.653,-0.152 -1.4,-0.237 -1.4,-0.742c0,-0.43 0.489,-0.543 0.913,-0.543c0.46,0 0.938,0.171 0.994,0.714l0.696,0c-0.055,-1.038 -0.81,-1.336 -1.747,-1.336c-0.744,0 -1.596,0.356 -1.596,1.214c0,0.817 0.703,1.05 1.395,1.205c0.705,0.158 1.395,0.245 1.395,0.793c0,0.536 -0.594,0.635 -1.034,0.635c-0.574,0 -1.117,-0.199 -1.143,-0.826l-0.704,0c0.044,1.056 0.848,1.442 1.808,1.442c0.866,0 1.815,-0.332 1.815,-1.345M103.691,37.194l-0.702,0l0,1.278l-0.721,0l0,0.616l0.721,0l0,2.716c0,0.782 0.292,0.933 1.017,0.933l0.537,0l0,-0.619l-0.324,0c-0.436,0 -0.528,-0.062 -0.528,-0.383l0,-2.647l0.852,0l0,-0.616l-0.852,0l0,-1.278ZM59.382,39.85l0,2.887l0.705,0l0,-2.805c0,-0.914 -0.352,-1.562 -1.471,-1.562c-0.611,0 -1.088,0.251 -1.385,0.778l-0.016,0l0,-0.676l-0.662,0l0,4.265l0.701,0l0,-2.411c0,-0.765 0.41,-1.334 1.26,-1.334c0.538,0 0.868,0.338 0.868,0.858M54.266,42.737l0.701,0l0,-4.265l-0.701,0l0,4.265ZM105.978,38.561l0,0.415c0.633,0 0.909,-0.561 0.909,-1.216l0,-0.912l-0.917,0l0,0.912l0.489,0c0,0.381 -0.11,0.801 -0.481,0.801M54.968,36.848l-0.701,0l0,0.856l0.701,0l0,-0.856ZM52.117,36.848l-2.988,2.934l0,-2.934l-0.779,0l0,5.889l0.779,0l0,-2.064l0.985,-0.915l2.126,2.979l0.992,0l-2.585,-3.518l2.483,-2.371l-1.013,0ZM86.084,42.737l0,-2.805c0,-0.914 -0.343,-1.562 -1.467,-1.562c-0.611,0 -1.088,0.251 -1.382,0.778l-0.018,0l0,-0.676l-0.665,0l0,4.265l0.708,0l0,-2.411c0,-0.765 0.41,-1.334 1.261,-1.334c0.534,0 0.866,0.338 0.866,0.858l0,2.887l0.697,0ZM81.238,40.609c0,-1.254 -0.718,-2.239 -2.071,-2.239c-1.357,0 -2.07,0.985 -2.07,2.239c0,1.244 0.713,2.224 2.07,2.224c1.353,0 2.071,-0.98 2.071,-2.224M79.167,42.217c-0.734,0 -1.328,-0.579 -1.328,-1.608c0,-1.04 0.594,-1.617 1.328,-1.617c0.734,0 1.329,0.577 1.329,1.617c0,1.029 -0.595,1.608 -1.329,1.608M65.312,42.372l0,-3.9l-0.66,0l0,0.61l-0.007,0c-0.258,-0.469 -0.734,-0.712 -1.27,-0.712c-1.473,0 -1.973,1.247 -1.973,2.254c0,1.164 0.636,2.16 1.902,2.16c0.539,0 1.099,-0.254 1.331,-0.776l0.017,0l0,0.281c0,0.957 -0.361,1.617 -1.277,1.617c-0.462,0 -1.071,-0.179 -1.106,-0.692l-0.703,0c0.042,0.932 0.966,1.254 1.769,1.254c1.343,0 1.977,-0.71 1.977,-2.096M63.351,42.167c-0.922,0 -1.205,-0.859 -1.205,-1.627c0,-0.813 0.361,-1.548 1.258,-1.548c0.887,0 1.216,0.774 1.216,1.526c0,0.797 -0.347,1.649 -1.269,1.649M74.889,37.836l0.015,0l0,4.901l0.74,0l0,-5.889l-1.069,0l-1.864,4.948l-1.857,-4.948l-1.072,0l0,5.889l0.74,0l0,-4.901l0.018,0l1.838,4.901l0.67,0l1.841,-4.901ZM96.494,38.472l-0.94,0l-1.945,1.866l0,-3.49l-0.702,0l0,5.889l0.702,0l0,-1.617l0.659,-0.613l1.462,2.23l0.887,0l-1.815,-2.715l1.692,-1.55ZM146.904,42.737l0.706,0l0,-4.264l-0.706,0l0,4.264ZM144.2,40.278c-0.654,-0.153 -1.396,-0.238 -1.396,-0.74c0,-0.43 0.49,-0.546 0.908,-0.546c0.46,0 0.944,0.174 0.99,0.718l0.703,0c-0.06,-1.039 -0.81,-1.336 -1.75,-1.336c-0.744,0 -1.592,0.357 -1.592,1.212c0,0.817 0.699,1.048 1.393,1.203c0.703,0.161 1.396,0.249 1.396,0.795c0,0.535 -0.597,0.633 -1.032,0.633c-0.576,0 -1.122,-0.199 -1.145,-0.825l-0.702,0c0.042,1.059 0.848,1.445 1.804,1.445c0.871,0 1.815,-0.331 1.815,-1.345c0,-0.826 -0.693,-1.057 -1.392,-1.214M139.653,39.372l-0.017,0l0,-0.899l-0.659,0l0,4.264l0.702,0l0,-1.898c0,-1.078 0.412,-1.722 1.543,-1.722l0,-0.743c-0.759,-0.023 -1.229,0.314 -1.569,0.998M120.421,36.849l-0.783,0l0,3.76c0,1.039 -0.542,1.608 -1.534,1.608c-1.036,0 -1.63,-0.569 -1.63,-1.608l0,-3.76l-0.784,0l0,3.76c0,1.571 0.899,2.27 2.414,2.27c1.468,0 2.317,-0.785 2.317,-2.27l0,-3.76ZM135.853,38.374c-1.162,0 -2.004,0.94 -2.004,2.218c0.043,1.305 0.683,2.245 2.045,2.245c0.955,0 1.634,-0.513 1.827,-1.452l-0.695,0c-0.125,0.552 -0.528,0.832 -1.106,0.832c-0.934,0 -1.353,-0.658 -1.328,-1.403l3.193,0c0.04,-1.029 -0.421,-2.44 -1.932,-2.44M134.592,40.196c0.05,-0.65 0.485,-1.204 1.225,-1.204c0.688,0 1.192,0.538 1.225,1.204l-2.45,0ZM131.045,42.029l-0.014,0l-1.199,-3.556l-0.785,0l1.586,4.264l0.748,0l1.563,-4.264l-0.734,0l-1.165,3.556ZM125.581,42.737l0,-2.804c0,-0.918 -0.343,-1.559 -1.466,-1.559c-0.611,0 -1.086,0.247 -1.382,0.776l-0.018,0l0,-0.677l-0.656,0l0,4.264l0.699,0l0,-2.406c0,-0.768 0.41,-1.339 1.261,-1.339c0.534,0 0.867,0.339 0.867,0.859l0,2.886l0.695,0ZM165.452,37.864l-0.132,0.618l-0.733,0l-0.1,0.438l0.742,0l-0.843,3.817l0.518,0l0.845,-3.817l0.832,0l0.099,-0.438l-0.839,0l0.122,-0.595c0.099,-0.419 0.264,-0.6 0.752,-0.6c0.105,0 0.215,0.032 0.32,0.048l0.092,-0.428c-0.175,-0.051 -0.357,-0.058 -0.539,-0.058c-0.705,0 -1.005,0.386 -1.136,1.015M127.877,36.849l-0.703,0l0,0.859l0.703,0l0,-0.859ZM161.651,38.356c-1.518,0 -2.373,1.338 -2.373,2.734c0,1.061 0.6,1.772 1.693,1.772c1.576,0 2.361,-1.402 2.361,-2.84c0,-1.046 -0.694,-1.666 -1.681,-1.666M161.075,42.421c-0.868,0 -1.284,-0.557 -1.284,-1.383c0,-0.998 0.632,-2.24 1.769,-2.24c0.832,0 1.252,0.541 1.252,1.333c0,0.99 -0.601,2.29 -1.737,2.29M127.175,42.737l0.703,0l0,-4.264l-0.703,0l0,4.264ZM146.904,37.708l0.706,0l0,-0.859l-0.706,0l0,0.859ZM150.161,37.194l-0.7,0l0,1.279l-0.724,0l0,0.618l0.724,0l0,2.713c0,0.784 0.288,0.933 1.015,0.933l0.537,0l0,-0.618l-0.325,0c-0.433,0 -0.527,-0.058 -0.527,-0.379l0,-2.649l0.852,0l0,-0.618l-0.852,0l0,-1.279ZM153.875,41.963l-0.017,0l-1.244,-3.49l-0.794,0l1.69,4.24l-0.286,0.724c-0.134,0.248 -0.289,0.388 -0.581,0.388c-0.138,0 -0.283,-0.058 -0.406,-0.097l0,0.642c0.152,0.059 0.315,0.074 0.48,0.074c0.626,0 0.918,-0.302 1.236,-1.138l1.859,-4.833l-0.744,0l-1.193,3.49ZM88.982,48.362l-0.008,0c-0.254,-0.474 -0.735,-0.709 -1.265,-0.709c-1.477,0 -1.973,1.244 -1.973,2.248c0,1.162 0.636,2.16 1.902,2.16c0.539,0 1.097,-0.255 1.33,-0.771l0.014,0l0,0.277c0,0.959 -0.361,1.617 -1.273,1.617c-0.463,0 -1.076,-0.183 -1.11,-0.695l-0.697,0c0.04,0.936 0.963,1.254 1.766,1.254c1.342,0 1.977,-0.709 1.977,-2.095l0,-3.897l-0.663,0l0,0.611ZM87.681,51.44c-0.922,0 -1.201,-0.85 -1.201,-1.624c0,-0.813 0.362,-1.548 1.261,-1.548c0.88,0 1.21,0.777 1.21,1.526c0,0.8 -0.346,1.646 -1.27,1.646M133.818,46.983l0.701,0l0,-0.856l-0.701,0l0,0.856ZM75.023,47.653c-1.353,0 -2.069,0.976 -2.069,2.234c0,1.242 0.716,2.224 2.069,2.224c1.352,0 2.071,-0.982 2.071,-2.224c0,-1.258 -0.719,-2.234 -2.071,-2.234M75.023,51.49c-0.734,0 -1.327,-0.574 -1.327,-1.603c0,-1.043 0.593,-1.619 1.327,-1.619c0.734,0 1.332,0.576 1.332,1.619c0,1.029 -0.598,1.603 -1.332,1.603M133.818,52.013l0.701,0l0,-4.264l-0.701,0l0,4.264ZM82.577,47.653c-1.35,0 -2.07,0.976 -2.07,2.234c0,1.242 0.72,2.224 2.07,2.224c1.353,0 2.07,-0.982 2.07,-2.224c0,-1.258 -0.717,-2.234 -2.07,-2.234M82.577,51.49c-0.733,0 -1.33,-0.574 -1.33,-1.603c0,-1.043 0.597,-1.619 1.33,-1.619c0.732,0 1.326,0.576 1.326,1.619c0,1.029 -0.594,1.603 -1.326,1.603M78.454,52.013l0.702,0l0,-5.89l-0.702,0l0,5.89ZM59.857,51.49c-0.893,0 -1.245,-0.771 -1.245,-1.558c0,-0.862 0.313,-1.664 1.327,-1.664c0.578,0 0.95,0.313 1.056,0.849l0.728,0c-0.105,-1.012 -0.878,-1.464 -1.842,-1.464c-1.352,0 -2.012,1.003 -2.012,2.279c0,1.274 0.693,2.179 1.995,2.179c1.07,0 1.723,-0.621 1.881,-1.658l-0.718,0c-0.093,0.644 -0.493,1.037 -1.17,1.037M117.052,47.651c-0.611,0 -1.089,0.247 -1.387,0.773l-0.016,0l0,-0.675l-0.66,0l0,4.264l0.701,0l0,-2.409c0,-0.766 0.416,-1.336 1.261,-1.336c0.538,0 0.869,0.341 0.869,0.858l0,2.887l0.701,0l0,-2.801c0,-0.92 -0.348,-1.561 -1.469,-1.561M65.084,47.653c-0.51,0 -1.111,0.211 -1.342,0.723l-0.018,0l0,-2.254l-0.697,0l0,5.891l0.697,0l0,-2.409c0,-0.769 0.414,-1.336 1.263,-1.336c0.533,0 0.864,0.339 0.864,0.857l0,2.888l0.703,0l0,-2.805c0,-0.915 -0.35,-1.555 -1.47,-1.555M106.744,47.651c-0.513,0 -1.112,0.212 -1.345,0.725l-0.016,0l0,-2.249l-0.7,0l0,5.886l0.7,0l0,-2.409c0,-0.766 0.414,-1.336 1.261,-1.336c0.536,0 0.869,0.341 0.869,0.858l0,2.887l0.696,0l0,-2.801c0,-0.92 -0.344,-1.561 -1.465,-1.561M111.598,47.651c-1.35,0 -2.068,0.978 -2.068,2.236c0,1.246 0.718,2.224 2.068,2.224c1.354,0 2.072,-0.978 2.072,-2.224c0,-1.258 -0.718,-2.236 -2.072,-2.236M111.598,51.494c-0.729,0 -1.325,-0.579 -1.325,-1.607c0,-1.043 0.596,-1.619 1.325,-1.619c0.737,0 1.33,0.576 1.33,1.619c0,1.028 -0.593,1.607 -1.33,1.607M92.782,51.237l-0.011,0l-1.249,-3.486l-0.789,0l1.689,4.235l-0.286,0.726c-0.133,0.247 -0.289,0.391 -0.578,0.391c-0.14,0 -0.279,-0.058 -0.412,-0.102l0,0.648c0.156,0.055 0.321,0.074 0.485,0.074c0.629,0 0.914,-0.312 1.24,-1.143l1.853,-4.829l-0.742,0l-1.2,3.486ZM98.939,46.788l1.968,0l0,5.225l0.782,0l0,-5.225l1.965,0l0,-0.661l-4.715,0l0,0.661ZM54.949,47.653c-1.164,0 -2.004,0.935 -2.004,2.218c0.038,1.3 0.682,2.24 2.046,2.24c0.955,0 1.633,-0.513 1.818,-1.452l-0.687,0c-0.126,0.553 -0.528,0.831 -1.106,0.831c-0.931,0 -1.355,-0.658 -1.33,-1.398l3.196,0c0.041,-1.031 -0.422,-2.439 -1.933,-2.439M53.686,49.472c0.052,-0.651 0.489,-1.204 1.223,-1.204c0.69,0 1.194,0.536 1.225,1.204l-2.448,0ZM53.064,46.122l-4.714,0l0,0.663l1.968,0l0,5.228l0.781,0l0,-5.228l1.965,0l0,-0.663ZM131.187,48.649l-0.018,0l0,-0.9l-0.656,0l0,4.264l0.698,0l0,-1.897c0,-1.078 0.415,-1.724 1.544,-1.724l0,-0.741c-0.762,-0.027 -1.227,0.314 -1.568,0.998M122.174,47.651c-0.586,0 -1.131,0.206 -1.36,0.677l-0.02,0l0,-2.201l-0.699,0l0,5.886l0.699,0l0,-0.571l0.02,0c0.313,0.504 0.939,0.669 1.378,0.669c1.301,0 1.944,-1.014 1.944,-2.218c0,-1.202 -0.648,-2.242 -1.962,-2.242M122.116,51.494c-0.966,0 -1.346,-0.776 -1.346,-1.616c0,-0.799 0.363,-1.61 1.304,-1.61c0.908,0 1.32,0.776 1.32,1.577c0,0.833 -0.319,1.649 -1.278,1.649M128.285,50.158c0,0.765 -0.412,1.336 -1.262,1.336c-0.536,0 -0.867,-0.338 -0.867,-0.858l0,-2.887l-0.699,0l0,2.805c0,0.913 0.347,1.557 1.469,1.557c0.608,0 1.083,-0.244 1.381,-0.774l0.02,0l0,0.676l0.659,0l0,-4.264l-0.701,0l0,2.409ZM70.163,47.653c-0.61,0 -1.085,0.242 -1.382,0.771l-0.02,0l0,-0.673l-0.657,0l0,4.262l0.698,0l0,-2.409c0,-0.769 0.414,-1.336 1.266,-1.336c0.534,0 0.865,0.339 0.865,0.857l0,2.888l0.698,0l0,-2.805c0,-0.915 -0.343,-1.555 -1.468,-1.555M160.118,29.429c0.164,0.153 0.247,0.364 0.247,0.639l0,3.087l0.55,0l0,-3.097c0,-0.392 -0.14,-0.703 -0.423,-0.937c-0.263,-0.219 -0.608,-0.328 -1.033,-0.328c-0.376,0 -0.688,0.097 -0.934,0.292c-0.185,0.148 -0.353,0.369 -0.506,0.663l0.391,0.181c0.086,-0.222 0.219,-0.399 0.398,-0.53c0.181,-0.129 0.398,-0.195 0.651,-0.195c0.274,0 0.494,0.076 0.659,0.225M156.683,29.159c-0.302,-0.245 -0.701,-0.366 -1.189,-0.366c-0.399,0 -0.769,0.099 -1.114,0.298c-0.273,0.16 -0.472,0.347 -0.599,0.554l0.344,0.253c0.145,-0.205 0.32,-0.366 0.535,-0.482c0.234,-0.128 0.501,-0.192 0.801,-0.192c0.374,0 0.665,0.082 0.869,0.249c0.203,0.168 0.305,0.415 0.305,0.743l0,1.39c-0.102,-0.463 -0.32,-0.887 -0.653,-1.271c-0.279,-0.323 -0.579,-0.483 -0.907,-0.483c-0.045,0 -0.082,0 -0.108,0.005c-0.328,0.034 -0.57,0.164 -0.724,0.392c-0.143,0.206 -0.212,0.497 -0.212,0.872l0,1.317c0,0.166 0.076,0.333 0.229,0.502c0.174,0.19 0.383,0.286 0.626,0.286c0.24,0 0.429,-0.074 0.568,-0.219c0.14,-0.146 0.207,-0.33 0.207,-0.559c0,-0.197 -0.067,-0.372 -0.205,-0.517c-0.147,-0.162 -0.336,-0.242 -0.57,-0.242c-0.088,0 -0.175,0.014 -0.257,0.04c-0.024,0.007 -0.051,0.019 -0.082,0.036l0,-0.972c0,-0.19 0.051,-0.326 0.154,-0.401c0.076,-0.055 0.193,-0.082 0.349,-0.082c0.014,-0.004 0.035,-0.006 0.061,-0.006c0.3,0 0.618,0.321 0.958,0.961c0.278,0.53 0.472,1.045 0.576,1.549c0.003,0.029 0.007,0.058 0.007,0.09l0,0.189c0,0.031 -0.004,0.051 -0.007,0.062l0.524,0l0,-2.939c0,-0.448 -0.16,-0.8 -0.486,-1.057M154.594,32.196c0.072,-0.078 0.169,-0.117 0.292,-0.117c0.127,0 0.225,0.039 0.294,0.118c0.067,0.079 0.104,0.171 0.104,0.278c0,0.111 -0.037,0.203 -0.104,0.281c-0.069,0.077 -0.167,0.116 -0.294,0.116c-0.127,0 -0.224,-0.039 -0.292,-0.116c-0.071,-0.078 -0.102,-0.17 -0.102,-0.281c0,-0.109 0.031,-0.204 0.102,-0.279M130.73,31.642c-0.141,-0.159 -0.339,-0.236 -0.597,-0.236c-0.221,0 -0.404,0.082 -0.547,0.246c-0.143,0.164 -0.213,0.355 -0.213,0.574c0,0.251 0.092,0.458 0.277,0.623c0.211,0.189 0.522,0.283 0.926,0.283c0.38,0 0.707,-0.051 0.973,-0.154c0.272,-0.103 0.485,-0.253 0.647,-0.448l0,-0.905c-0.203,0.281 -0.424,0.505 -0.669,0.669c-0.175,0.12 -0.349,0.204 -0.524,0.25c-0.086,0.026 -0.16,0.038 -0.217,0.038c0.085,-0.117 0.129,-0.259 0.129,-0.428c0,-0.2 -0.062,-0.373 -0.185,-0.512M130.442,32.426c-0.065,0.07 -0.158,0.104 -0.277,0.104c-0.12,0 -0.213,-0.034 -0.279,-0.104c-0.066,-0.073 -0.099,-0.157 -0.099,-0.255c0,-0.101 0.035,-0.186 0.106,-0.259c0.067,-0.072 0.157,-0.106 0.272,-0.106c0.119,0 0.212,0.034 0.277,0.106c0.064,0.073 0.097,0.158 0.097,0.259c0,0.098 -0.033,0.182 -0.097,0.255M158.167,26.466c-0.189,0.283 -0.3,0.442 -0.328,0.483c-0.193,0.245 -0.403,0.437 -0.628,0.581c-0.112,0.055 -0.202,0.091 -0.272,0.103c-0.074,0.014 -0.166,0.02 -0.279,0.02l-0.186,0c0.067,-0.062 0.111,-0.114 0.141,-0.164c0.088,-0.15 0.131,-0.337 0.131,-0.56c0,-0.18 -0.063,-0.338 -0.185,-0.469c-0.124,-0.129 -0.295,-0.195 -0.517,-0.195c-0.197,0 -0.351,0.06 -0.464,0.181c-0.111,0.119 -0.169,0.271 -0.169,0.452c0,0.158 0.037,0.289 0.111,0.394c0.079,0.104 0.177,0.177 0.3,0.217c0.061,0.011 0.12,0.017 0.169,0.017c0.02,0 0.049,-0.003 0.081,-0.006c0.033,-0.004 0.058,-0.006 0.075,-0.011c-0.025,0.066 -0.1,0.15 -0.225,0.251c-0.125,0.101 -0.19,0.164 -0.198,0.191c-0.009,0.05 0.038,0.089 0.142,0.119c0.036,0.009 0.087,0.016 0.157,0.027c0.021,0.01 0.037,0.014 0.049,0.014c0.086,0.019 0.19,0.027 0.311,0.027c0.122,0 0.261,-0.014 0.413,-0.041c0.153,-0.029 0.317,-0.074 0.495,-0.139c0.178,-0.067 0.342,-0.161 0.502,-0.288c0.111,-0.093 0.237,-0.22 0.374,-0.38l0,-0.824ZM156.266,27.121c-0.055,0.06 -0.128,0.091 -0.222,0.091c-0.096,0 -0.17,-0.031 -0.222,-0.093c-0.051,-0.061 -0.078,-0.133 -0.078,-0.215c0,-0.082 0.028,-0.155 0.083,-0.22c0.051,-0.064 0.122,-0.094 0.217,-0.094c0.094,0 0.167,0.03 0.222,0.094c0.053,0.065 0.081,0.138 0.081,0.22c0,0.084 -0.028,0.158 -0.081,0.217M177.033,27.719c0.227,0 0.455,0.01 0.679,0.031c0.222,0.02 0.481,0.068 0.771,0.14c0.198,0.047 0.398,0.104 0.597,0.17c0.082,0.026 0.162,0.054 0.242,0.082c-0.038,-0.169 -0.077,-0.306 -0.115,-0.413c-0.009,-0.033 -0.024,-0.072 -0.045,-0.112l0,-1.758l-0.464,0l0,0.998c-0.099,-0.094 -0.184,-0.165 -0.264,-0.212c-0.225,-0.143 -0.488,-0.242 -0.79,-0.293c-0.067,-0.011 -0.136,-0.017 -0.201,-0.017c-0.383,0 -0.733,0.146 -1.049,0.433c-0.314,0.288 -0.509,0.631 -0.582,1.029c0.147,-0.02 0.266,-0.035 0.36,-0.042c0.284,-0.023 0.569,-0.036 0.861,-0.036M176.813,26.953c0.194,-0.138 0.404,-0.204 0.63,-0.204c0.044,0 0.075,0 0.097,0.003c0.366,0.039 0.657,0.164 0.875,0.375c0.131,0.128 0.25,0.315 0.357,0.561c-0.105,-0.061 -0.195,-0.106 -0.275,-0.138c-0.242,-0.095 -0.525,-0.161 -0.853,-0.196c-0.125,-0.012 -0.215,-0.021 -0.269,-0.021l-0.188,0c-0.173,0 -0.343,0.009 -0.513,0.021c-0.056,0.004 -0.124,0.012 -0.206,0.022c0.047,-0.155 0.16,-0.296 0.345,-0.423M177.175,29.327c0.143,-0.068 0.279,-0.103 0.404,-0.103c0.149,0 0.405,0.068 0.758,0.205c0.156,0.062 0.304,0.093 0.435,0.093c0.09,0 0.181,-0.01 0.275,-0.033c0.095,-0.022 0.198,-0.056 0.312,-0.104l-0.099,-0.455c-0.093,0.045 -0.18,0.076 -0.256,0.093c-0.076,0.019 -0.146,0.026 -0.211,0.026c-0.095,0 -0.217,-0.028 -0.37,-0.082c-0.321,-0.116 -0.599,-0.174 -0.844,-0.174c-0.306,0 -0.593,0.111 -0.869,0.333c-0.221,0.183 -0.41,0.412 -0.567,0.69c0.235,0.041 0.421,0.074 0.563,0.098c0.401,0.076 0.751,0.148 1.053,0.215c0.294,0.087 0.486,0.173 0.572,0.263c0.116,0.124 0.175,0.354 0.175,0.689l0,0.638c-0.041,-0.005 -0.087,-0.014 -0.134,-0.02c-0.047,-0.007 -0.095,-0.01 -0.138,-0.01c-0.242,0 -0.433,0.08 -0.577,0.242c-0.127,0.144 -0.191,0.32 -0.191,0.528c0,0.209 0.066,0.386 0.198,0.529c0.143,0.159 0.34,0.238 0.591,0.238c0.228,0 0.415,-0.067 0.558,-0.201c0.144,-0.133 0.218,-0.318 0.218,-0.554l0,-1.415c0,-0.384 -0.045,-0.651 -0.13,-0.797c-0.123,-0.209 -0.386,-0.361 -0.786,-0.454c-0.213,-0.047 -0.464,-0.11 -0.751,-0.191c-0.107,-0.026 -0.249,-0.065 -0.428,-0.116c0.015,-0.046 0.094,-0.104 0.239,-0.171M178.641,32.471c0,0.105 -0.035,0.197 -0.103,0.276c-0.066,0.075 -0.16,0.114 -0.283,0.114c-0.125,0 -0.22,-0.039 -0.287,-0.114c-0.066,-0.079 -0.099,-0.171 -0.099,-0.276c0,-0.107 0.033,-0.2 0.099,-0.275c0.067,-0.078 0.162,-0.117 0.287,-0.117c0.123,0 0.219,0.04 0.291,0.123c0.062,0.072 0.095,0.162 0.095,0.269M164.944,32.332l0,-1.266c0,-0.193 -0.02,-0.345 -0.058,-0.46c-0.037,-0.115 -0.115,-0.234 -0.236,-0.357c-0.117,-0.141 -0.304,-0.273 -0.56,-0.397c-0.285,-0.137 -0.547,-0.207 -0.789,-0.207l0,-0.441c0.156,0 0.328,0.039 0.521,0.119c0.386,0.156 0.647,0.236 0.781,0.236c0.09,0 0.176,-0.01 0.261,-0.029c0.084,-0.018 0.176,-0.051 0.28,-0.094l-0.124,-0.454c-0.099,0.049 -0.187,0.082 -0.259,0.101c-0.074,0.02 -0.146,0.029 -0.213,0.029c-0.027,0 -0.245,-0.074 -0.647,-0.222c-0.181,-0.064 -0.382,-0.097 -0.609,-0.097c-0.402,0 -0.727,0.097 -0.973,0.292c-0.172,0.137 -0.301,0.322 -0.39,0.552c-0.024,0.098 -0.049,0.195 -0.071,0.292c0.102,-0.011 0.201,-0.015 0.297,-0.015c0.092,0.002 0.187,0.006 0.284,0.011c0.094,0.002 0.192,0.004 0.291,0.004l0,2.782l-0.544,0l0,0.444l1.842,0c0.373,0 0.62,-0.051 0.74,-0.153c0.117,-0.101 0.176,-0.324 0.176,-0.67M162.71,29.543l-0.432,0.031c0.051,-0.073 0.094,-0.124 0.13,-0.158c0.105,-0.107 0.206,-0.161 0.302,-0.161l0,0.288ZM164.408,32.332c0,0.157 -0.023,0.26 -0.072,0.307c-0.049,0.05 -0.157,0.072 -0.328,0.072l-0.736,0l0,-2.684c0.189,0.037 0.355,0.091 0.503,0.158c0.1,0.046 0.228,0.117 0.38,0.218c0.119,0.088 0.192,0.197 0.226,0.322c0.019,0.066 0.027,0.175 0.027,0.331l0,1.276ZM169.646,31.257l0,-2.376l-0.534,0l0,2.414c-0.272,0.04 -0.534,0.125 -0.776,0.25c-0.349,0.183 -0.653,0.445 -0.91,0.788l0,-2.727c0,-0.22 -0.067,-0.404 -0.208,-0.554c-0.134,-0.153 -0.319,-0.226 -0.55,-0.226c-0.25,0 -0.447,0.08 -0.594,0.24c-0.133,0.144 -0.195,0.32 -0.195,0.53c0,0.209 0.067,0.391 0.207,0.541c0.138,0.151 0.332,0.225 0.582,0.225c0.044,0 0.082,-0.002 0.12,-0.008c0.038,-0.009 0.074,-0.014 0.102,-0.023l0,2.824l0.536,0c0.196,-0.382 0.442,-0.707 0.742,-0.969c0.297,-0.262 0.611,-0.421 0.944,-0.475l0,1.065c0,0.126 0.058,0.226 0.169,0.303c0.111,0.076 0.246,0.113 0.408,0.113c0.233,0 0.434,-0.071 0.602,-0.216c0.194,-0.164 0.287,-0.395 0.287,-0.694c0,-0.358 -0.093,-0.624 -0.287,-0.803c-0.16,-0.148 -0.376,-0.222 -0.645,-0.222M166.981,29.881c-0.074,0.078 -0.177,0.117 -0.313,0.117c-0.135,0 -0.239,-0.037 -0.312,-0.11c-0.071,-0.075 -0.106,-0.167 -0.106,-0.275c0,-0.103 0.035,-0.193 0.109,-0.272c0.074,-0.076 0.178,-0.115 0.309,-0.115c0.136,0 0.244,0.042 0.321,0.124c0.071,0.071 0.103,0.16 0.103,0.263c0,0.102 -0.038,0.192 -0.111,0.268M170.028,32.683c-0.082,0.097 -0.173,0.144 -0.266,0.144c-0.097,0 -0.145,-0.047 -0.145,-0.144l0,-1.034c0.19,0.023 0.317,0.058 0.383,0.104c0.119,0.084 0.176,0.254 0.176,0.509c0,0.166 -0.047,0.308 -0.148,0.421M130.566,30.479c0.376,0 0.7,-0.051 0.971,-0.152c0.271,-0.103 0.488,-0.249 0.649,-0.439l0,-0.906c-0.21,0.283 -0.435,0.507 -0.673,0.667c-0.164,0.112 -0.341,0.191 -0.53,0.242c-0.091,0.025 -0.16,0.036 -0.212,0.036c0.088,-0.119 0.134,-0.262 0.134,-0.431c0,-0.199 -0.062,-0.366 -0.186,-0.5c-0.139,-0.15 -0.34,-0.225 -0.595,-0.225c-0.223,0 -0.406,0.083 -0.551,0.244c-0.138,0.162 -0.211,0.353 -0.211,0.569c0,0.25 0.092,0.456 0.277,0.616c0.214,0.185 0.522,0.279 0.927,0.279M129.873,29.251c0.063,-0.074 0.153,-0.111 0.272,-0.111c0.115,0 0.208,0.042 0.278,0.119c0.057,0.068 0.087,0.154 0.087,0.257c0,0.101 -0.032,0.187 -0.097,0.261c-0.062,0.074 -0.153,0.111 -0.268,0.111c-0.116,0 -0.205,-0.039 -0.269,-0.115c-0.064,-0.074 -0.097,-0.16 -0.097,-0.257c0,-0.103 0.033,-0.191 0.094,-0.265M135.049,30.216c-0.175,-0.125 -0.354,-0.189 -0.534,-0.189c-0.247,0 -0.443,0.079 -0.587,0.236c-0.132,0.144 -0.198,0.318 -0.198,0.526c0,0.206 0.066,0.376 0.193,0.513c0.14,0.155 0.333,0.233 0.579,0.233c0.07,0 0.144,-0.019 0.226,-0.052c0.025,-0.01 0.058,-0.026 0.095,-0.047l0,1.023c0,0.227 0.082,0.408 0.246,0.54c0.148,0.122 0.329,0.18 0.546,0.18c0.208,0 0.387,-0.058 0.53,-0.18c0.156,-0.132 0.236,-0.313 0.236,-0.54l0,-2.252c0,-0.446 -0.158,-0.794 -0.474,-1.042c-0.317,-0.249 -0.727,-0.372 -1.234,-0.372c-0.398,0 -0.766,0.109 -1.101,0.328c-0.265,0.171 -0.455,0.368 -0.575,0.588l0.391,0.25c0.137,-0.215 0.297,-0.384 0.479,-0.502c0.233,-0.155 0.497,-0.233 0.796,-0.233c0.377,0 0.663,0.078 0.858,0.236c0.213,0.172 0.321,0.436 0.321,0.789l0,2.189c0,0.09 -0.025,0.158 -0.071,0.201c-0.046,0.045 -0.102,0.068 -0.172,0.068c-0.066,0 -0.123,-0.024 -0.171,-0.072c-0.047,-0.049 -0.071,-0.113 -0.071,-0.197l0,-1.686c0,-0.21 -0.103,-0.388 -0.308,-0.536M134.793,31.058c-0.065,0.078 -0.159,0.117 -0.278,0.117c-0.126,0 -0.219,-0.039 -0.284,-0.117c-0.065,-0.076 -0.099,-0.17 -0.099,-0.279c0,-0.107 0.034,-0.199 0.104,-0.28c0.07,-0.078 0.159,-0.117 0.279,-0.117c0.123,0 0.218,0.039 0.283,0.116c0.064,0.078 0.094,0.17 0.094,0.281c0,0.109 -0.032,0.203 -0.099,0.279M174.674,32.333c0,0.161 -0.021,0.265 -0.06,0.311c-0.039,0.047 -0.142,0.069 -0.31,0.069l-1.541,0l0,-3.107c0,-0.22 -0.066,-0.404 -0.204,-0.554c-0.136,-0.153 -0.321,-0.226 -0.551,-0.226c-0.249,0 -0.447,0.08 -0.595,0.24c-0.133,0.144 -0.196,0.32 -0.196,0.53c0,0.209 0.067,0.391 0.208,0.541c0.139,0.151 0.334,0.225 0.583,0.225c0.045,0 0.086,-0.002 0.123,-0.008c0.035,-0.009 0.069,-0.014 0.098,-0.023l0,2.382l-0.517,0l0,0.442l2.592,0c0.38,0 0.628,-0.049 0.747,-0.15c0.12,-0.103 0.177,-0.325 0.177,-0.672l0,-3.452l-0.554,0l0,3.452ZM172.32,29.881c-0.074,0.078 -0.176,0.117 -0.312,0.117c-0.136,0 -0.243,-0.037 -0.313,-0.11c-0.074,-0.075 -0.108,-0.167 -0.108,-0.275c0,-0.103 0.038,-0.193 0.111,-0.272c0.072,-0.076 0.178,-0.115 0.31,-0.115c0.136,0 0.243,0.042 0.32,0.124c0.068,0.071 0.104,0.16 0.104,0.263c0,0.102 -0.038,0.192 -0.112,0.268M120.699,30.362c0.041,0 0.08,-0.002 0.117,-0.008c0.037,-0.009 0.071,-0.014 0.102,-0.023l0,2.824l0.536,0l0.087,-0.472c0.054,-0.158 0.106,-0.296 0.156,-0.412c0.136,-0.34 0.308,-0.726 0.517,-1.157c0.173,-0.407 0.312,-0.844 0.423,-1.313c0.016,-0.082 0.038,-0.183 0.061,-0.301c0.022,0.082 0.042,0.165 0.066,0.247c0.062,0.214 0.126,0.416 0.191,0.601c0.097,0.275 0.2,0.529 0.315,0.766c0.165,0.353 0.289,0.637 0.376,0.849c0.057,0.144 0.125,0.321 0.199,0.535c0.02,0.061 0.04,0.123 0.061,0.185l0.099,0.472l0.525,0l0,-4.274l-0.525,0l0,2.906c-0.112,-0.226 -0.194,-0.405 -0.253,-0.534c-0.181,-0.395 -0.306,-0.677 -0.371,-0.85c-0.202,-0.478 -0.342,-0.897 -0.415,-1.255c-0.011,-0.06 -0.023,-0.133 -0.037,-0.215l-0.401,0c-0.03,0.223 -0.07,0.421 -0.116,0.591c-0.087,0.296 -0.198,0.599 -0.338,0.906l-0.62,1.357l0,-2.181c0,-0.22 -0.07,-0.404 -0.205,-0.554c-0.139,-0.153 -0.323,-0.226 -0.55,-0.226c-0.251,0 -0.448,0.078 -0.593,0.236c-0.126,0.14 -0.192,0.314 -0.192,0.523c0,0.214 0.066,0.393 0.197,0.538c0.148,0.159 0.342,0.239 0.588,0.239M120.386,29.341c0.074,-0.076 0.178,-0.115 0.313,-0.115c0.131,0 0.238,0.042 0.316,0.124c0.069,0.071 0.104,0.16 0.104,0.263c0,0.102 -0.036,0.192 -0.11,0.268c-0.074,0.078 -0.179,0.117 -0.31,0.117c-0.14,0 -0.243,-0.037 -0.317,-0.11c-0.07,-0.075 -0.107,-0.167 -0.107,-0.275c0,-0.103 0.037,-0.193 0.111,-0.272M174.599,33.564c-0.205,0 -0.365,0.063 -0.48,0.189c-0.099,0.111 -0.148,0.252 -0.148,0.422c0,0.168 0.053,0.313 0.156,0.436c0.105,0.121 0.249,0.183 0.431,0.183c0.013,0 0.041,-0.005 0.087,-0.013c0.045,-0.01 0.082,-0.016 0.113,-0.018l0,0.885l0.432,0l0,-1.483c0,-0.188 -0.056,-0.335 -0.172,-0.442c-0.11,-0.105 -0.25,-0.159 -0.419,-0.159M174.826,34.382c-0.056,0.059 -0.133,0.087 -0.227,0.087c-0.101,0 -0.176,-0.031 -0.229,-0.09c-0.054,-0.06 -0.08,-0.13 -0.08,-0.207c0,-0.083 0.026,-0.155 0.08,-0.214c0.053,-0.06 0.128,-0.091 0.229,-0.091c0.099,0 0.174,0.031 0.228,0.091c0.054,0.059 0.081,0.131 0.081,0.214c0,0.082 -0.029,0.151 -0.082,0.21M127.081,30.129c0.294,0.087 0.485,0.173 0.571,0.263c0.116,0.124 0.172,0.354 0.172,0.689l0,0.638c-0.04,-0.005 -0.084,-0.014 -0.131,-0.02c-0.05,-0.007 -0.095,-0.01 -0.14,-0.01c-0.24,0 -0.431,0.08 -0.574,0.242c-0.128,0.144 -0.194,0.32 -0.194,0.528c0,0.209 0.066,0.386 0.197,0.529c0.144,0.159 0.341,0.238 0.592,0.238c0.23,0 0.415,-0.067 0.561,-0.201c0.144,-0.133 0.215,-0.318 0.215,-0.554l0,-1.415c0,-0.384 -0.043,-0.651 -0.127,-0.797c-0.122,-0.209 -0.386,-0.361 -0.789,-0.454c-0.211,-0.047 -0.461,-0.11 -0.751,-0.191c-0.107,-0.026 -0.246,-0.065 -0.427,-0.116c0.015,-0.046 0.094,-0.104 0.237,-0.171c0.144,-0.068 0.28,-0.103 0.407,-0.103c0.151,0 0.403,0.068 0.756,0.205c0.156,0.062 0.304,0.093 0.437,0.093c0.089,0 0.181,-0.01 0.276,-0.033c0.094,-0.022 0.196,-0.056 0.31,-0.104l-0.097,-0.455c-0.097,0.045 -0.183,0.076 -0.256,0.093c-0.077,0.019 -0.148,0.026 -0.211,0.026c-0.097,0 -0.22,-0.028 -0.373,-0.082c-0.316,-0.116 -0.599,-0.174 -0.842,-0.174c-0.306,0 -0.595,0.111 -0.871,0.333c-0.221,0.183 -0.41,0.412 -0.564,0.69c0.231,0.041 0.42,0.074 0.561,0.098c0.4,0.076 0.751,0.148 1.055,0.215M127.96,32.471c0,0.105 -0.034,0.197 -0.101,0.276c-0.068,0.075 -0.162,0.114 -0.285,0.114c-0.123,0 -0.217,-0.039 -0.285,-0.114c-0.068,-0.079 -0.101,-0.171 -0.101,-0.276c0,-0.107 0.033,-0.2 0.101,-0.275c0.068,-0.078 0.162,-0.117 0.285,-0.117c0.123,0 0.221,0.04 0.291,0.123c0.064,0.072 0.095,0.162 0.095,0.269M152.207,30.196l0,2.959l0.551,0l0,-2.959c0,-0.462 -0.155,-0.816 -0.465,-1.06c-0.29,-0.228 -0.7,-0.343 -1.235,-0.343c-0.366,0 -0.717,0.086 -1.053,0.261c-0.237,0.125 -0.454,0.287 -0.66,0.489c-0.074,0.089 -0.148,0.176 -0.226,0.262c0.239,0 0.471,0.06 0.7,0.182c0.073,0.037 0.159,0.096 0.261,0.174c-0.159,0.067 -0.279,0.156 -0.357,0.263c-0.106,0.143 -0.16,0.343 -0.16,0.601l0,2.13l0.538,0l0,-2.15c0,-0.302 0.111,-0.54 0.337,-0.711c0.07,-0.055 0.18,-0.111 0.328,-0.165c-0.213,-0.182 -0.445,-0.316 -0.698,-0.406c-0.043,-0.014 -0.094,-0.028 -0.155,-0.047c0.18,-0.154 0.372,-0.267 0.575,-0.341c0.202,-0.074 0.41,-0.111 0.623,-0.111c0.317,0 0.57,0.08 0.771,0.243c0.215,0.174 0.325,0.418 0.325,0.729M140.728,33.002c0.121,-0.101 0.179,-0.324 0.179,-0.67l0,-2.116c0,-0.446 -0.162,-0.799 -0.488,-1.057c-0.307,-0.245 -0.7,-0.366 -1.189,-0.366c-0.402,0 -0.772,0.099 -1.11,0.298c-0.27,0.158 -0.47,0.342 -0.599,0.554l0.34,0.253c0.145,-0.205 0.323,-0.366 0.535,-0.482c0.234,-0.128 0.502,-0.192 0.805,-0.192c0.34,0 0.62,0.085 0.833,0.255c0.216,0.17 0.321,0.417 0.321,0.737l0,2.116c0,0.15 -0.025,0.252 -0.074,0.303c-0.053,0.051 -0.16,0.076 -0.325,0.076l-1.277,0c-0.174,0 -0.283,-0.022 -0.324,-0.07c-0.041,-0.045 -0.062,-0.147 -0.062,-0.309l0,-0.757c0.029,0.013 0.052,0.023 0.068,0.026c0.055,0.017 0.113,0.026 0.174,0.026c0.242,0 0.438,-0.082 0.584,-0.243c0.125,-0.139 0.188,-0.314 0.188,-0.523c0,-0.207 -0.065,-0.384 -0.196,-0.53c-0.144,-0.163 -0.334,-0.242 -0.576,-0.242c-0.281,0 -0.492,0.101 -0.632,0.303c-0.098,0.145 -0.148,0.302 -0.148,0.479l0,1.461c0,0.348 0.058,0.574 0.173,0.673c0.119,0.101 0.369,0.15 0.751,0.15l1.308,0c0.376,0 0.624,-0.051 0.741,-0.153M138.125,30.871c0,-0.107 0.034,-0.199 0.107,-0.275c0.069,-0.078 0.169,-0.117 0.293,-0.117c0.128,0 0.228,0.042 0.303,0.124c0.067,0.071 0.097,0.161 0.097,0.268c0,0.103 -0.032,0.193 -0.104,0.269c-0.07,0.078 -0.168,0.117 -0.296,0.117c-0.124,0 -0.224,-0.039 -0.293,-0.117c-0.073,-0.076 -0.107,-0.166 -0.107,-0.269M148.553,31.929c-0.14,-0.16 -0.331,-0.24 -0.572,-0.24c-0.053,0 -0.11,0.006 -0.18,0.018c-0.017,0.004 -0.037,0.008 -0.062,0.01l0,-2.838l-0.538,0l0,3.59c0,0.24 0.074,0.429 0.227,0.567c0.139,0.125 0.319,0.188 0.543,0.188c0.247,0 0.442,-0.077 0.582,-0.236c0.127,-0.143 0.189,-0.32 0.189,-0.529c0,-0.21 -0.062,-0.386 -0.189,-0.53M148.265,32.748c-0.07,0.074 -0.168,0.113 -0.294,0.113c-0.127,0 -0.224,-0.039 -0.293,-0.117c-0.068,-0.076 -0.103,-0.168 -0.103,-0.275c0,-0.108 0.035,-0.201 0.103,-0.277c0.069,-0.076 0.166,-0.113 0.293,-0.113c0.126,0 0.224,0.039 0.294,0.118c0.067,0.079 0.102,0.169 0.102,0.272c0,0.112 -0.035,0.203 -0.102,0.279M145.303,32.482c-0.024,0.089 -0.069,0.133 -0.135,0.133c-0.057,0 -0.131,-0.034 -0.219,-0.107c-0.09,-0.073 -0.193,-0.178 -0.31,-0.319c-0.148,-0.197 -0.344,-0.391 -0.591,-0.586c-0.255,-0.206 -0.449,-0.308 -0.576,-0.308l0,-1.689c0,-0.221 -0.069,-0.408 -0.204,-0.558c-0.139,-0.149 -0.328,-0.222 -0.568,-0.222c-0.246,0 -0.443,0.08 -0.592,0.24c-0.131,0.144 -0.194,0.32 -0.194,0.53c0,0.209 0.063,0.386 0.194,0.53c0.145,0.158 0.337,0.236 0.583,0.236c0.054,0 0.099,-0.002 0.139,-0.008c0.038,-0.009 0.071,-0.014 0.102,-0.023l0,0.964c-0.306,0 -0.545,0.1 -0.721,0.303c-0.154,0.176 -0.229,0.394 -0.229,0.653c0,0.247 0.07,0.456 0.209,0.633c0.156,0.189 0.357,0.281 0.608,0.281c0.221,0 0.389,-0.064 0.503,-0.193c0.113,-0.127 0.17,-0.318 0.17,-0.572l0,-0.272c0,-0.049 0,-0.107 0.002,-0.177c0.003,-0.068 0.004,-0.102 0.008,-0.102c0.077,0.018 0.191,0.1 0.345,0.246c0.155,0.148 0.309,0.297 0.463,0.447c0.044,0.06 0.111,0.138 0.196,0.239c0.05,0.057 0.132,0.151 0.247,0.284c0.092,0.084 0.242,0.127 0.448,0.127c0.174,0 0.32,-0.037 0.441,-0.113c0.139,-0.086 0.206,-0.212 0.206,-0.376l0,-3.822l-0.525,0l0,3.601ZM142.932,32.564c0,0.083 -0.019,0.145 -0.051,0.186c-0.036,0.041 -0.079,0.062 -0.134,0.062c-0.087,0 -0.157,-0.044 -0.215,-0.129c-0.05,-0.058 -0.087,-0.13 -0.115,-0.214c-0.027,-0.085 -0.042,-0.173 -0.042,-0.265c0,-0.148 0.039,-0.27 0.118,-0.369c0.075,-0.101 0.195,-0.15 0.351,-0.15c0.037,0 0.068,0.001 0.088,0.006l0,0.873ZM142.979,29.885c-0.07,0.074 -0.163,0.113 -0.279,0.113c-0.119,0 -0.212,-0.039 -0.277,-0.113c-0.064,-0.076 -0.096,-0.166 -0.096,-0.272c0,-0.107 0.032,-0.197 0.096,-0.274c0.065,-0.076 0.158,-0.113 0.277,-0.113c0.119,0 0.215,0.042 0.288,0.124c0.063,0.071 0.094,0.16 0.094,0.263c0,0.106 -0.034,0.196 -0.103,0.272M76.307,29.399c0.179,-0.129 0.397,-0.193 0.652,-0.193c0.272,0 0.492,0.074 0.656,0.227c0.166,0.149 0.247,0.362 0.247,0.635l0,3.087l0.551,0l0,-3.097c0,-0.39 -0.14,-0.703 -0.422,-0.934c-0.265,-0.219 -0.61,-0.331 -1.032,-0.331c-0.379,0 -0.691,0.099 -0.936,0.295c-0.186,0.147 -0.354,0.366 -0.506,0.663l0.39,0.18c0.087,-0.224 0.219,-0.401 0.4,-0.532M98.147,30.586c0,-0.208 -0.066,-0.381 -0.197,-0.53c-0.145,-0.162 -0.335,-0.243 -0.575,-0.243c-0.306,0 -0.541,0.103 -0.703,0.309c-0.164,0.208 -0.245,0.466 -0.245,0.778l0,0.39c-0.017,-0.101 -0.074,-0.256 -0.174,-0.468c-0.078,-0.173 -0.119,-0.339 -0.119,-0.503c0,-0.368 0.136,-0.657 0.411,-0.871c0.246,-0.19 0.551,-0.288 0.908,-0.288c0.349,0 0.641,0.093 0.879,0.278c0.262,0.208 0.394,0.487 0.394,0.841l0,2.875l0.526,0l0,-2.907c0,-0.48 -0.185,-0.86 -0.556,-1.138c-0.327,-0.246 -0.739,-0.368 -1.223,-0.368c-0.506,0 -0.936,0.13 -1.294,0.393c-0.39,0.293 -0.585,0.684 -0.585,1.173c0,0.252 0.068,0.505 0.208,0.761c0.123,0.208 0.245,0.413 0.373,0.618c0.136,0.241 0.201,0.477 0.201,0.709l0,0.759l0.526,0l0,-1.931c0.039,0.025 0.072,0.04 0.097,0.047c0.145,0.056 0.273,0.082 0.376,0.082c0.246,0 0.439,-0.079 0.581,-0.236c0.125,-0.142 0.191,-0.318 0.191,-0.53M97.667,30.87c-0.068,0.073 -0.165,0.112 -0.292,0.112c-0.128,0 -0.224,-0.039 -0.292,-0.112c-0.065,-0.077 -0.099,-0.168 -0.099,-0.274c0,-0.111 0.034,-0.203 0.104,-0.277c0.067,-0.076 0.164,-0.112 0.287,-0.112c0.127,0 0.224,0.036 0.292,0.114c0.068,0.076 0.102,0.168 0.102,0.275c0,0.106 -0.034,0.197 -0.102,0.274M80.31,29.416c0.234,-0.128 0.501,-0.192 0.804,-0.192c0.373,0 0.661,0.085 0.867,0.251c0.202,0.167 0.304,0.415 0.304,0.744l0,1.387c-0.102,-0.46 -0.32,-0.884 -0.653,-1.271c-0.277,-0.32 -0.579,-0.482 -0.903,-0.482c-0.049,0 -0.087,0.002 -0.109,0.004c-0.331,0.035 -0.573,0.167 -0.725,0.392c-0.142,0.206 -0.212,0.498 -0.212,0.875l0,1.316c0,0.164 0.076,0.331 0.227,0.5c0.174,0.19 0.384,0.287 0.628,0.287c0.24,0 0.428,-0.072 0.569,-0.218c0.138,-0.146 0.207,-0.332 0.207,-0.559c0,-0.199 -0.068,-0.371 -0.207,-0.518c-0.147,-0.163 -0.336,-0.244 -0.569,-0.244c-0.09,0 -0.174,0.015 -0.257,0.041c-0.024,0.01 -0.054,0.019 -0.082,0.039l0,-0.975c0,-0.19 0.049,-0.324 0.152,-0.4c0.078,-0.055 0.193,-0.082 0.351,-0.082c0.014,-0.004 0.034,-0.007 0.062,-0.007c0.297,0 0.617,0.323 0.954,0.964c0.281,0.528 0.472,1.043 0.579,1.548c0.002,0.028 0.005,0.057 0.005,0.088l0,0.189c0,0.032 -0.003,0.052 -0.005,0.062l0.525,0l0,-2.936c0,-0.451 -0.163,-0.803 -0.483,-1.06c-0.308,-0.245 -0.705,-0.366 -1.196,-0.366c-0.396,0 -0.768,0.101 -1.109,0.298c-0.275,0.162 -0.476,0.347 -0.603,0.557l0.345,0.252c0.144,-0.207 0.322,-0.368 0.534,-0.484M80.246,32.197c0.072,-0.079 0.166,-0.116 0.292,-0.116c0.125,0 0.224,0.038 0.294,0.117c0.068,0.081 0.102,0.172 0.102,0.277c0,0.111 -0.034,0.206 -0.102,0.282c-0.07,0.076 -0.169,0.115 -0.294,0.115c-0.128,0 -0.225,-0.039 -0.295,-0.115c-0.069,-0.076 -0.102,-0.171 -0.102,-0.282c0,-0.109 0.035,-0.204 0.105,-0.278M69.463,29.346c0.132,0 0.215,0.063 0.257,0.19c0.021,0.062 0.03,0.167 0.03,0.313l0,3.308l0.547,0l0,-3.308c0,-0.261 -0.062,-0.479 -0.184,-0.658c-0.145,-0.204 -0.349,-0.309 -0.609,-0.309c-0.275,0 -0.546,0.149 -0.813,0.443c-0.202,0.224 -0.402,0.532 -0.601,0.931c-0.077,0.153 -0.2,0.441 -0.376,0.858l0,-1.506c0,-0.219 -0.071,-0.404 -0.206,-0.556c-0.138,-0.15 -0.321,-0.226 -0.551,-0.226c-0.249,0 -0.447,0.086 -0.595,0.257c-0.132,0.152 -0.196,0.335 -0.196,0.55c0,0.204 0.06,0.377 0.184,0.52c0.118,0.143 0.291,0.216 0.509,0.216c0.041,0 0.074,0 0.098,-0.005l0.223,-0.031l0,2.824l0.534,0c0,-0.435 0.11,-0.97 0.328,-1.599c0.204,-0.579 0.443,-1.093 0.722,-1.541c0.282,-0.448 0.514,-0.671 0.699,-0.671M67.27,29.883c-0.074,0.076 -0.177,0.116 -0.313,0.116c-0.136,0 -0.242,-0.037 -0.313,-0.111c-0.072,-0.075 -0.107,-0.164 -0.107,-0.275c0,-0.103 0.035,-0.194 0.109,-0.269c0.074,-0.078 0.178,-0.117 0.311,-0.117c0.136,0 0.241,0.041 0.322,0.123c0.066,0.072 0.102,0.16 0.102,0.263c0,0.102 -0.037,0.193 -0.111,0.27M64.582,31.699c-0.038,-0.007 -0.085,-0.011 -0.132,-0.011c-0.248,0 -0.448,0.081 -0.591,0.236c-0.129,0.143 -0.195,0.316 -0.195,0.526c0,0.214 0.066,0.391 0.202,0.536c0.149,0.161 0.352,0.241 0.605,0.241c0.256,0 0.454,-0.087 0.593,-0.261c0.107,-0.142 0.164,-0.314 0.164,-0.516l0,-2.231c0,-0.446 -0.155,-0.796 -0.459,-1.048c-0.308,-0.252 -0.711,-0.378 -1.208,-0.378c-0.369,0 -0.713,0.095 -1.022,0.284c-0.267,0.16 -0.474,0.361 -0.62,0.602l0.316,0.252c0.127,-0.193 0.298,-0.353 0.513,-0.479c0.255,-0.151 0.527,-0.228 0.813,-0.228c0.358,0 0.635,0.087 0.833,0.253c0.198,0.169 0.299,0.415 0.299,0.742l0,1.501c-0.035,-0.007 -0.072,-0.013 -0.111,-0.021M64.749,32.204c0.061,0.072 0.094,0.16 0.094,0.267c0,0.11 -0.035,0.204 -0.102,0.278c-0.071,0.075 -0.164,0.112 -0.291,0.112c-0.122,0 -0.22,-0.039 -0.287,-0.117c-0.068,-0.08 -0.105,-0.171 -0.105,-0.273c0,-0.109 0.037,-0.203 0.105,-0.277c0.067,-0.076 0.165,-0.113 0.287,-0.113c0.127,0 0.229,0.041 0.299,0.123M113.909,29.159c-0.305,-0.245 -0.702,-0.366 -1.195,-0.366c-0.396,0 -0.767,0.101 -1.109,0.298c-0.275,0.162 -0.476,0.347 -0.604,0.557l0.345,0.252c0.144,-0.207 0.325,-0.368 0.534,-0.484c0.235,-0.128 0.502,-0.192 0.805,-0.192c0.375,0 0.661,0.085 0.867,0.251c0.203,0.167 0.304,0.415 0.304,0.744l0,1.387c-0.103,-0.46 -0.321,-0.884 -0.653,-1.271c-0.277,-0.32 -0.579,-0.482 -0.903,-0.482c-0.049,0 -0.087,0.002 -0.107,0.004c-0.331,0.035 -0.574,0.167 -0.727,0.392c-0.14,0.206 -0.209,0.498 -0.209,0.875l0,1.316c0,0.164 0.073,0.331 0.225,0.5c0.173,0.19 0.382,0.287 0.626,0.287c0.241,0 0.429,-0.072 0.57,-0.218c0.139,-0.146 0.209,-0.332 0.209,-0.559c0,-0.199 -0.07,-0.371 -0.208,-0.518c-0.145,-0.163 -0.338,-0.244 -0.571,-0.244c-0.087,0 -0.174,0.015 -0.256,0.041c-0.025,0.01 -0.055,0.019 -0.082,0.039l0,-0.975c0,-0.19 0.049,-0.324 0.154,-0.4c0.076,-0.055 0.191,-0.082 0.348,-0.082c0.015,-0.004 0.036,-0.007 0.065,-0.007c0.295,0 0.615,0.323 0.955,0.964c0.277,0.528 0.47,1.043 0.577,1.548c0.003,0.028 0.003,0.057 0.003,0.088l0,0.189c0,0.032 0,0.052 -0.003,0.062l0.523,0l0,-2.936c0,-0.451 -0.16,-0.803 -0.483,-1.06M111.819,32.197c0.07,-0.079 0.167,-0.116 0.289,-0.116c0.128,0 0.224,0.038 0.294,0.117c0.068,0.081 0.103,0.172 0.103,0.277c0,0.111 -0.035,0.206 -0.103,0.282c-0.07,0.076 -0.166,0.115 -0.294,0.115c-0.125,0 -0.223,-0.039 -0.292,-0.115c-0.07,-0.076 -0.104,-0.171 -0.104,-0.282c0,-0.109 0.037,-0.204 0.107,-0.278M72.214,31.146c-0.159,0.043 -0.278,0.093 -0.353,0.147c-0.234,0.172 -0.351,0.441 -0.351,0.808l0,1.054l2.253,0c0.369,0 0.617,-0.049 0.735,-0.152c0.121,-0.101 0.181,-0.324 0.181,-0.671l0,-3.45l-0.533,0l0,3.45c0,0.156 -0.025,0.256 -0.07,0.306c-0.047,0.051 -0.153,0.075 -0.313,0.075l-1.705,0l0,-0.612c0,-0.228 0.066,-0.409 0.202,-0.543c0.134,-0.135 0.341,-0.202 0.62,-0.202c0.004,0 0.01,-0.027 0.012,-0.076c0,-0.05 0.002,-0.101 0.002,-0.151c0,-0.052 -0.002,-0.104 -0.006,-0.152c-0.002,-0.05 -0.006,-0.075 -0.008,-0.075c-0.23,0 -0.431,-0.061 -0.603,-0.184c-0.216,-0.154 -0.325,-0.383 -0.325,-0.68c0.041,0.059 0.082,0.101 0.12,0.123c0.112,0.08 0.254,0.118 0.426,0.118c0.234,0 0.419,-0.074 0.554,-0.224c0.126,-0.139 0.185,-0.307 0.185,-0.506c0,-0.205 -0.059,-0.378 -0.185,-0.52c-0.135,-0.158 -0.32,-0.236 -0.554,-0.236c-0.312,0 -0.575,0.134 -0.787,0.396c-0.195,0.244 -0.292,0.528 -0.292,0.855c0,0.25 0.065,0.475 0.196,0.672c0.134,0.196 0.333,0.338 0.599,0.43M72.233,29.284c0.064,-0.072 0.153,-0.111 0.265,-0.111c0.116,0 0.202,0.039 0.267,0.115c0.065,0.075 0.099,0.162 0.099,0.261c0,0.105 -0.034,0.19 -0.099,0.263c-0.065,0.071 -0.151,0.108 -0.267,0.108c-0.112,0 -0.201,-0.037 -0.265,-0.11c-0.064,-0.074 -0.097,-0.161 -0.097,-0.261c0,-0.103 0.033,-0.191 0.097,-0.265M63.124,27.725c0.232,0 0.456,0.013 0.679,0.033c0.223,0.021 0.481,0.066 0.774,0.138c0.196,0.049 0.397,0.105 0.594,0.17c0.083,0.027 0.162,0.056 0.242,0.082c-0.065,-0.264 -0.127,-0.471 -0.19,-0.622c-0.123,-0.296 -0.286,-0.536 -0.489,-0.721c-0.265,-0.24 -0.595,-0.387 -0.998,-0.447c-0.039,-0.006 -0.103,-0.011 -0.185,-0.011c-0.389,0 -0.741,0.144 -1.059,0.434c-0.319,0.287 -0.516,0.628 -0.586,1.022c0.144,-0.02 0.263,-0.034 0.358,-0.04c0.284,-0.025 0.568,-0.038 0.86,-0.038M62.904,26.96c0.195,-0.138 0.407,-0.206 0.632,-0.206c0.041,0 0.075,0.003 0.097,0.007c0.364,0.042 0.653,0.17 0.869,0.38c0.137,0.129 0.259,0.316 0.361,0.554c-0.102,-0.062 -0.193,-0.107 -0.273,-0.138c-0.244,-0.096 -0.527,-0.162 -0.854,-0.195c-0.125,-0.014 -0.216,-0.022 -0.267,-0.022l-0.191,0c-0.17,0 -0.34,0.008 -0.513,0.022c-0.056,0.002 -0.124,0.01 -0.206,0.021c0.048,-0.154 0.163,-0.296 0.345,-0.423M58.937,29.399c0.181,-0.129 0.398,-0.193 0.653,-0.193c0.273,0 0.493,0.074 0.657,0.227c0.165,0.149 0.246,0.362 0.246,0.635l0,3.087l0.551,0l0,-3.097c0,-0.39 -0.14,-0.703 -0.423,-0.934c-0.263,-0.219 -0.608,-0.331 -1.031,-0.331c-0.378,0 -0.69,0.099 -0.936,0.295c-0.187,0.147 -0.354,0.366 -0.506,0.663l0.391,0.18c0.085,-0.224 0.217,-0.401 0.398,-0.532M109.006,27.36l0,5.107c0,0.244 0.07,0.431 0.208,0.561c0.141,0.131 0.328,0.196 0.555,0.196c0.247,0 0.436,-0.082 0.578,-0.241c0.127,-0.144 0.19,-0.32 0.19,-0.531c0,-0.209 -0.063,-0.385 -0.19,-0.529c-0.138,-0.158 -0.322,-0.237 -0.555,-0.237c-0.055,0 -0.103,0.002 -0.141,0.011c-0.041,0.006 -0.08,0.012 -0.121,0.02l0,-4.392c0,-0.46 -0.142,-0.791 -0.428,-0.994c-0.107,-0.076 -0.332,-0.192 -0.679,-0.355c0.056,-0.037 0.102,-0.066 0.139,-0.082c0.116,-0.055 0.234,-0.083 0.355,-0.083c0.092,0 0.327,0.075 0.701,0.222c0.164,0.066 0.312,0.099 0.447,0.099c0.102,0 0.208,-0.021 0.316,-0.059c0.111,-0.042 0.224,-0.103 0.341,-0.189l-0.222,-0.35c-0.085,0.058 -0.159,0.099 -0.225,0.121c-0.066,0.023 -0.136,0.034 -0.21,0.034c-0.107,0 -0.28,-0.054 -0.521,-0.159c-0.239,-0.107 -0.448,-0.16 -0.627,-0.16c-0.309,0 -0.624,0.113 -0.946,0.339c-0.103,0.071 -0.231,0.183 -0.382,0.335c0.678,0.295 1.088,0.513 1.236,0.657c0.119,0.121 0.181,0.341 0.181,0.659M109.474,32.192c0.071,-0.077 0.168,-0.116 0.295,-0.116c0.128,0 0.231,0.042 0.304,0.124c0.066,0.071 0.099,0.162 0.099,0.267c0,0.106 -0.035,0.2 -0.107,0.275c-0.069,0.078 -0.168,0.117 -0.296,0.117c-0.127,0 -0.224,-0.039 -0.295,-0.117c-0.07,-0.075 -0.105,-0.169 -0.105,-0.275c0,-0.105 0.035,-0.198 0.105,-0.275M84.162,30.716c0.132,0.196 0.333,0.338 0.6,0.43c-0.162,0.043 -0.279,0.093 -0.356,0.147c-0.232,0.172 -0.351,0.441 -0.351,0.808l0,1.054l2.255,0c0.37,0 0.615,-0.049 0.735,-0.152c0.119,-0.101 0.18,-0.324 0.18,-0.671l0,-3.45l-0.537,0l0,3.45c0,0.156 -0.02,0.256 -0.068,0.306c-0.046,0.051 -0.15,0.075 -0.31,0.075l-1.708,0l0,-0.612c0,-0.228 0.068,-0.409 0.203,-0.543c0.136,-0.135 0.342,-0.202 0.618,-0.202c0.008,0 0.013,-0.027 0.015,-0.076c0.002,-0.05 0.002,-0.101 0.002,-0.151c0,-0.052 0,-0.104 -0.004,-0.152c-0.005,-0.05 -0.008,-0.075 -0.013,-0.075c-0.228,0 -0.429,-0.061 -0.6,-0.184c-0.217,-0.154 -0.325,-0.383 -0.325,-0.68c0.042,0.059 0.081,0.101 0.12,0.123c0.111,0.08 0.255,0.118 0.427,0.118c0.233,0 0.417,-0.074 0.555,-0.224c0.122,-0.139 0.184,-0.307 0.184,-0.506c0,-0.205 -0.062,-0.378 -0.184,-0.52c-0.138,-0.158 -0.322,-0.236 -0.555,-0.236c-0.313,0 -0.575,0.134 -0.788,0.396c-0.195,0.244 -0.292,0.528 -0.292,0.855c0,0.25 0.064,0.475 0.197,0.672M84.778,29.284c0.063,-0.072 0.153,-0.111 0.267,-0.111c0.111,0 0.202,0.039 0.267,0.115c0.065,0.075 0.099,0.162 0.099,0.261c0,0.105 -0.034,0.19 -0.099,0.263c-0.065,0.071 -0.156,0.108 -0.267,0.108c-0.114,0 -0.204,-0.037 -0.267,-0.11c-0.062,-0.074 -0.094,-0.161 -0.094,-0.261c0,-0.103 0.032,-0.191 0.094,-0.265M103.662,30.364c0.041,0 0.082,-0.004 0.12,-0.01c0.037,-0.006 0.071,-0.014 0.102,-0.021l0,2.824l0.535,0c0.196,-0.384 0.443,-0.707 0.74,-0.97c0.298,-0.263 0.614,-0.419 0.947,-0.475l0,1.065c0,0.127 0.056,0.228 0.168,0.302c0.111,0.076 0.247,0.113 0.408,0.113c0.234,0 0.433,-0.071 0.603,-0.216c0.191,-0.164 0.287,-0.395 0.287,-0.694c0,-0.358 -0.096,-0.625 -0.287,-0.803c-0.162,-0.146 -0.378,-0.22 -0.645,-0.22l0,-2.377l-0.534,0l0,2.413c-0.275,0.041 -0.534,0.125 -0.776,0.253c-0.349,0.18 -0.653,0.443 -0.911,0.786l0,-2.726c0,-0.219 -0.069,-0.404 -0.207,-0.556c-0.135,-0.15 -0.32,-0.226 -0.55,-0.226c-0.25,0 -0.448,0.08 -0.595,0.243c-0.131,0.143 -0.197,0.32 -0.197,0.529c0,0.21 0.07,0.388 0.209,0.541c0.14,0.15 0.333,0.225 0.583,0.225M106.612,31.649c0.189,0.025 0.313,0.06 0.378,0.104c0.121,0.085 0.179,0.256 0.179,0.509c0,0.168 -0.049,0.308 -0.148,0.422c-0.081,0.095 -0.172,0.144 -0.266,0.144c-0.098,0 -0.143,-0.049 -0.143,-0.144l0,-1.035ZM103.353,29.344c0.071,-0.078 0.175,-0.117 0.309,-0.117c0.134,0 0.24,0.041 0.321,0.123c0.068,0.072 0.102,0.16 0.102,0.263c0,0.102 -0.037,0.193 -0.11,0.27c-0.075,0.076 -0.179,0.116 -0.313,0.116c-0.135,0 -0.242,-0.037 -0.312,-0.111c-0.073,-0.075 -0.111,-0.164 -0.111,-0.275c0,-0.103 0.038,-0.194 0.114,-0.269M80.909,27.911c0.284,0.13 0.649,0.194 1.091,0.194c0.48,0 0.926,-0.146 1.337,-0.441c0.384,-0.275 0.634,-0.6 0.752,-0.977l-0.424,-0.212c-0.099,0.343 -0.303,0.627 -0.614,0.852c-0.31,0.224 -0.647,0.337 -1.008,0.337c-0.017,0 -0.037,0.002 -0.063,0.004c-0.076,0 -0.169,-0.015 -0.277,-0.046c-0.034,-0.008 -0.073,-0.019 -0.124,-0.04c0.155,-0.138 0.234,-0.319 0.234,-0.54c0,-0.195 -0.06,-0.36 -0.183,-0.495c-0.137,-0.146 -0.323,-0.22 -0.557,-0.22c-0.229,0 -0.414,0.08 -0.554,0.24c-0.123,0.144 -0.184,0.316 -0.184,0.516c0,0.037 0,0.065 0.003,0.086c0.036,0.332 0.226,0.581 0.571,0.742M80.811,26.814c0.062,-0.072 0.152,-0.107 0.262,-0.107c0.111,0 0.198,0.039 0.268,0.119c0.059,0.068 0.088,0.152 0.088,0.251c0,0.1 -0.031,0.184 -0.091,0.258c-0.063,0.072 -0.151,0.107 -0.265,0.107c-0.11,0 -0.2,-0.035 -0.262,-0.107c-0.062,-0.074 -0.091,-0.158 -0.091,-0.258c0,-0.103 0.029,-0.192 0.091,-0.263M53.979,30.364c0.039,0 0.077,-0.004 0.115,-0.01c0.038,-0.006 0.075,-0.014 0.108,-0.021l0,2.824l0.533,0l0,-0.171c0,-0.424 0.146,-0.871 0.434,-1.337c0.33,-0.528 0.758,-0.923 1.288,-1.186c0.069,0.043 0.123,0.087 0.157,0.127c0.105,0.133 0.158,0.321 0.158,0.556l0,2.011l0.547,0l0,-2.011c0,-0.285 -0.062,-0.514 -0.189,-0.689c-0.041,-0.056 -0.105,-0.113 -0.191,-0.175c0.133,-0.07 0.234,-0.164 0.302,-0.285c0.065,-0.123 0.098,-0.255 0.098,-0.399c0,-0.209 -0.066,-0.386 -0.195,-0.529c-0.145,-0.163 -0.341,-0.243 -0.581,-0.243c-0.251,0 -0.45,0.082 -0.596,0.246c-0.131,0.144 -0.196,0.323 -0.196,0.536c0,0.12 0.024,0.233 0.069,0.339c0.045,0.108 0.115,0.193 0.204,0.263c-0.015,0 -0.101,0.054 -0.257,0.164c-0.224,0.154 -0.406,0.306 -0.55,0.458c-0.22,0.23 -0.387,0.47 -0.502,0.726l0,-1.95c0,-0.219 -0.065,-0.404 -0.204,-0.556c-0.137,-0.15 -0.321,-0.226 -0.552,-0.226c-0.25,0 -0.447,0.08 -0.595,0.243c-0.129,0.143 -0.195,0.32 -0.195,0.529c0,0.21 0.07,0.388 0.207,0.541c0.14,0.15 0.333,0.225 0.583,0.225M56.276,29.337c0.07,-0.073 0.164,-0.11 0.287,-0.11c0.128,0 0.226,0.041 0.3,0.119c0.06,0.068 0.091,0.156 0.091,0.262c0,0.103 -0.034,0.191 -0.103,0.268c-0.068,0.075 -0.164,0.112 -0.288,0.112c-0.123,0 -0.217,-0.037 -0.287,-0.112c-0.071,-0.077 -0.103,-0.165 -0.103,-0.268c0,-0.106 0.032,-0.197 0.103,-0.271M53.672,29.344c0.071,-0.078 0.177,-0.117 0.307,-0.117c0.136,0 0.243,0.041 0.321,0.123c0.07,0.072 0.103,0.16 0.103,0.263c0,0.102 -0.037,0.193 -0.111,0.27c-0.075,0.076 -0.177,0.116 -0.313,0.116c-0.135,0 -0.239,-0.037 -0.311,-0.111c-0.073,-0.075 -0.109,-0.164 -0.109,-0.275c0,-0.103 0.036,-0.194 0.113,-0.269M100.97,27.36l0,5.107c0,0.244 0.072,0.431 0.212,0.561c0.14,0.131 0.324,0.196 0.554,0.196c0.244,0 0.436,-0.082 0.575,-0.241c0.127,-0.144 0.191,-0.32 0.191,-0.531c0,-0.209 -0.064,-0.385 -0.191,-0.529c-0.136,-0.158 -0.32,-0.237 -0.555,-0.237c-0.053,0 -0.102,0.002 -0.138,0.011c-0.042,0.006 -0.083,0.012 -0.124,0.02l0,-4.392c0,-0.46 -0.142,-0.791 -0.427,-0.994c-0.105,-0.076 -0.333,-0.192 -0.678,-0.355c0.056,-0.037 0.103,-0.066 0.139,-0.082c0.116,-0.055 0.234,-0.083 0.354,-0.083c0.094,0 0.327,0.075 0.702,0.222c0.164,0.066 0.312,0.099 0.446,0.099c0.104,0 0.21,-0.021 0.318,-0.059c0.111,-0.042 0.224,-0.103 0.341,-0.189l-0.222,-0.35c-0.086,0.058 -0.16,0.099 -0.226,0.121c-0.066,0.023 -0.135,0.034 -0.211,0.034c-0.106,0 -0.282,-0.054 -0.519,-0.159c-0.241,-0.107 -0.448,-0.16 -0.629,-0.16c-0.308,0 -0.623,0.113 -0.945,0.339c-0.102,0.071 -0.23,0.183 -0.382,0.335c0.676,0.295 1.089,0.513 1.236,0.657c0.12,0.121 0.179,0.341 0.179,0.659M101.441,32.192c0.07,-0.077 0.168,-0.116 0.295,-0.116c0.128,0 0.228,0.042 0.304,0.124c0.066,0.071 0.099,0.162 0.099,0.267c0,0.106 -0.035,0.2 -0.108,0.275c-0.069,0.078 -0.167,0.117 -0.295,0.117c-0.127,0 -0.225,-0.039 -0.295,-0.117c-0.071,-0.075 -0.105,-0.169 -0.105,-0.275c0,-0.105 0.034,-0.198 0.105,-0.275M89.366,33.227c0.248,0 0.442,-0.078 0.583,-0.236c0.127,-0.144 0.189,-0.321 0.189,-0.53c0,-0.21 -0.062,-0.386 -0.189,-0.529c-0.141,-0.163 -0.333,-0.244 -0.571,-0.244c-0.053,0 -0.113,0.007 -0.18,0.021c-0.017,0.004 -0.037,0.008 -0.062,0.011l0,-2.84l-0.54,0l0,3.591c0,0.24 0.076,0.43 0.226,0.565c0.141,0.128 0.322,0.191 0.544,0.191M89.074,32.192c0.068,-0.074 0.165,-0.113 0.292,-0.113c0.127,0 0.225,0.04 0.296,0.119c0.065,0.078 0.103,0.168 0.103,0.273c0,0.11 -0.038,0.201 -0.103,0.278c-0.071,0.075 -0.169,0.112 -0.296,0.112c-0.127,0 -0.224,-0.039 -0.292,-0.114c-0.069,-0.079 -0.103,-0.171 -0.103,-0.276c0,-0.11 0.034,-0.203 0.103,-0.279M91.209,30.369c0.041,0 0.075,0 0.1,-0.005l0.221,-0.031l0,2.824l0.534,0c0,-0.435 0.111,-0.97 0.329,-1.599c0.202,-0.579 0.443,-1.093 0.723,-1.541c0.278,-0.448 0.512,-0.671 0.697,-0.671c0.13,0 0.215,0.063 0.254,0.19c0.022,0.062 0.035,0.167 0.035,0.313l0,3.308l0.543,0l0,-3.308c0,-0.261 -0.059,-0.479 -0.184,-0.658c-0.144,-0.204 -0.347,-0.309 -0.606,-0.309c-0.275,0 -0.547,0.149 -0.814,0.443c-0.203,0.224 -0.402,0.532 -0.604,0.931c-0.073,0.153 -0.198,0.441 -0.373,0.858l0,-1.506c0,-0.219 -0.07,-0.404 -0.205,-0.556c-0.141,-0.15 -0.321,-0.226 -0.55,-0.226c-0.252,0 -0.45,0.086 -0.599,0.257c-0.128,0.152 -0.194,0.335 -0.194,0.55c0,0.204 0.061,0.377 0.183,0.52c0.121,0.143 0.293,0.216 0.51,0.216M90.996,29.344c0.074,-0.078 0.176,-0.117 0.313,-0.117c0.133,0 0.237,0.041 0.318,0.123c0.067,0.072 0.104,0.16 0.104,0.263c0,0.102 -0.038,0.193 -0.112,0.27c-0.073,0.076 -0.177,0.116 -0.31,0.116c-0.141,0 -0.243,-0.037 -0.317,-0.111c-0.07,-0.075 -0.107,-0.164 -0.107,-0.275c0,-0.103 0.037,-0.194 0.111,-0.269M116.678,27.721c0.231,0 0.458,0.01 0.681,0.031c0.223,0.02 0.481,0.066 0.773,0.138c0.196,0.049 0.396,0.105 0.595,0.17c0.082,0.026 0.163,0.056 0.242,0.082c-0.039,-0.168 -0.075,-0.304 -0.114,-0.411c-0.009,-0.035 -0.026,-0.071 -0.046,-0.114l0,-1.758l-0.464,0l0,0.998c-0.098,-0.092 -0.184,-0.162 -0.261,-0.212c-0.228,-0.143 -0.49,-0.24 -0.792,-0.293c-0.069,-0.009 -0.136,-0.014 -0.202,-0.014c-0.384,0 -0.733,0.143 -1.049,0.431c-0.314,0.287 -0.51,0.632 -0.581,1.028c0.146,-0.02 0.265,-0.033 0.359,-0.041c0.284,-0.022 0.569,-0.035 0.859,-0.035M116.458,26.955c0.195,-0.137 0.409,-0.207 0.632,-0.207c0.043,0 0.074,0.001 0.099,0.006c0.364,0.037 0.656,0.162 0.875,0.376c0.129,0.125 0.248,0.312 0.355,0.56c-0.103,-0.061 -0.195,-0.108 -0.275,-0.139c-0.242,-0.096 -0.526,-0.16 -0.852,-0.195c-0.128,-0.014 -0.216,-0.021 -0.269,-0.021l-0.19,0c-0.172,0 -0.341,0.007 -0.512,0.021c-0.056,0.004 -0.125,0.01 -0.206,0.02c0.045,-0.153 0.162,-0.296 0.343,-0.421M48.35,29.598c0,0.21 0.065,0.384 0.193,0.528c0.145,0.16 0.339,0.238 0.583,0.238c0.053,0 0.1,-0.004 0.139,-0.01c0.037,-0.006 0.07,-0.014 0.103,-0.021l0,0.962c-0.306,0 -0.546,0.1 -0.721,0.304c-0.154,0.178 -0.232,0.395 -0.232,0.652c0,0.247 0.069,0.458 0.211,0.633c0.154,0.189 0.355,0.283 0.606,0.283c0.224,0 0.392,-0.063 0.504,-0.192c0.114,-0.13 0.171,-0.321 0.171,-0.574l0,-0.272c0,-0.048 0.001,-0.108 0.002,-0.175c0,-0.068 0.005,-0.103 0.009,-0.103c0.073,0.016 0.188,0.099 0.345,0.247c0.152,0.147 0.307,0.295 0.462,0.447c0.043,0.057 0.109,0.138 0.195,0.236c0.053,0.06 0.135,0.152 0.247,0.284c0.094,0.086 0.242,0.127 0.448,0.127c0.176,0 0.321,-0.037 0.442,-0.113c0.137,-0.084 0.205,-0.209 0.205,-0.373l0,-3.824l-0.524,0l0,3.601c-0.025,0.089 -0.068,0.133 -0.132,0.133c-0.06,0 -0.133,-0.035 -0.222,-0.108c-0.091,-0.072 -0.192,-0.176 -0.31,-0.319c-0.146,-0.195 -0.342,-0.39 -0.592,-0.585c-0.256,-0.207 -0.449,-0.309 -0.575,-0.309l0,-1.687c0,-0.223 -0.069,-0.409 -0.206,-0.558c-0.136,-0.15 -0.325,-0.224 -0.565,-0.224c-0.249,0 -0.446,0.08 -0.593,0.243c-0.128,0.143 -0.193,0.32 -0.193,0.529M49.368,32.565c0,0.082 -0.017,0.144 -0.051,0.186c-0.036,0.041 -0.082,0.061 -0.135,0.061c-0.085,0 -0.159,-0.043 -0.217,-0.128c-0.047,-0.059 -0.086,-0.13 -0.113,-0.213c-0.026,-0.084 -0.039,-0.172 -0.039,-0.265c0,-0.147 0.038,-0.271 0.115,-0.371c0.076,-0.099 0.193,-0.149 0.351,-0.149c0.039,0 0.068,0 0.089,0.005l0,0.874ZM48.859,29.34c0.065,-0.074 0.156,-0.113 0.277,-0.113c0.119,0 0.215,0.041 0.286,0.123c0.063,0.072 0.093,0.16 0.093,0.263c0,0.106 -0.032,0.197 -0.102,0.273c-0.07,0.076 -0.161,0.113 -0.277,0.113c-0.121,0 -0.212,-0.037 -0.277,-0.113c-0.066,-0.076 -0.099,-0.167 -0.099,-0.273c0,-0.107 0.033,-0.197 0.099,-0.273M115.626,32.101l0,1.054l2.255,0c0.369,0 0.613,-0.049 0.735,-0.152c0.119,-0.101 0.181,-0.324 0.181,-0.671l0,-3.45l-0.537,0l0,3.45c0,0.156 -0.022,0.256 -0.069,0.306c-0.047,0.051 -0.15,0.075 -0.31,0.075l-1.709,0l0,-0.612c0,-0.228 0.068,-0.409 0.204,-0.543c0.135,-0.135 0.342,-0.202 0.62,-0.202c0.007,0 0.01,-0.027 0.012,-0.076c0.003,-0.05 0.003,-0.101 0.003,-0.151c0,-0.052 0,-0.104 -0.005,-0.152c-0.003,-0.05 -0.008,-0.075 -0.01,-0.075c-0.231,0 -0.431,-0.061 -0.601,-0.184c-0.219,-0.154 -0.325,-0.383 -0.325,-0.68c0.041,0.059 0.082,0.101 0.119,0.123c0.113,0.08 0.254,0.118 0.427,0.118c0.232,0 0.418,-0.074 0.554,-0.224c0.124,-0.139 0.186,-0.307 0.186,-0.506c0,-0.205 -0.062,-0.378 -0.186,-0.52c-0.136,-0.158 -0.322,-0.236 -0.554,-0.236c-0.312,0 -0.575,0.134 -0.788,0.396c-0.196,0.244 -0.293,0.528 -0.293,0.855c0,0.25 0.066,0.475 0.198,0.672c0.132,0.196 0.332,0.338 0.6,0.43c-0.162,0.043 -0.28,0.093 -0.355,0.147c-0.233,0.172 -0.352,0.441 -0.352,0.808M116.349,29.284c0.066,-0.072 0.153,-0.111 0.267,-0.111c0.11,0 0.201,0.039 0.267,0.115c0.065,0.075 0.099,0.162 0.099,0.261c0,0.105 -0.034,0.19 -0.099,0.263c-0.066,0.071 -0.157,0.108 -0.267,0.108c-0.114,0 -0.201,-0.037 -0.267,-0.11c-0.062,-0.074 -0.095,-0.161 -0.095,-0.261c0,-0.103 0.033,-0.191 0.095,-0.265" style="fill:#ef4f24;fill-rule:nonzero;"/></svg>