<?xml version="1.0" standalone="no"?><!DOCTYPE svg PUBLIC "-//W3C//DTD SVG 1.1//EN" "http://www.w3.org/Graphics/SVG/1.1/DTD/svg11.dtd"><svg width="100%" height="100%" viewBox="0 0 147 32" version="1.1" xmlns="http://www.w3.org/2000/svg" xmlns:xlink="http://www.w3.org/1999/xlink" xml:space="preserve" style="fill-rule:evenodd;clip-rule:evenodd;stroke-linejoin:round;stroke-miterlimit:1.41421;"><g id="saturday school"><path d="M104.301,8.674c0.177,-0.8 0.306,-1.57 0.538,-2.307c0.07,-0.222 0.489,-0.541 0.635,-0.49c0.266,0.092 0.545,0.394 0.645,0.67c0.289,0.81 -0.721,2.102 -1.818,2.127M108.595,11.092c-0.538,-0.632 -1.124,-1.224 -1.726,-1.867c0.935,-1.551 0.935,-1.551 0.772,-2.467c-0.231,-1.302 -1.255,-2.192 -2.502,-2.156c-1.395,0.039 -1.754,0.438 -2.117,2.13c-0.137,0.642 -0.765,3.657 -0.867,4.403c-0.073,0.534 0.43,1.084 0.913,1.086c0.636,0.005 0.757,-0.461 0.806,-0.967c0.014,-0.142 0.089,-1.087 0.099,-1.23c0,0.224 0.294,0.013 0.854,-0.059c0.869,-0.113 1.122,0.623 1.63,1.028c0.503,0.4 1.059,0.746 1.633,1.034c0.149,0.074 0.448,-0.239 0.56,-0.411c0.088,-0.137 0.082,-0.363 -0.055,-0.524" style="fill:#231f20;"/><path d="M95.104,25.059c0,-0.863 0.063,-1.695 -0.024,-2.512c-0.051,-0.48 -0.099,-0.895 0.452,-0.963c0.854,-0.105 1.515,0.315 1.498,0.894c-0.063,2.013 -0.115,4.029 -0.271,6.035c-0.022,0.29 -0.577,0.731 -0.903,0.747c-0.277,0.013 -0.751,-0.443 -0.831,-0.767c-0.138,-0.561 -0.039,-1.18 -0.039,-1.801c-0.871,0 -1.703,-0.048 -2.484,0.022c-0.28,0.025 -0.397,0.242 -0.411,0.451c-0.007,0.09 -0.113,1.305 -0.392,1.563c-0.214,0.199 -0.861,0.174 -1.153,-0.009c-0.497,-0.312 -0.864,-0.797 -0.726,-1.516c0.098,-0.513 0.282,-2.277 0.342,-2.632c0.082,-0.5 0.185,-1.011 0.163,-1.512c-0.04,-0.886 0.185,-1.173 1.083,-1.18c0.636,-0.005 0.998,0.595 0.948,1.243c-0.028,0.366 0.017,0.679 -0.077,1.032c-0.145,0.54 0.288,0.843 0.693,0.885c0.695,0.073 1.403,0.02 2.132,0.02" style="fill:#231f20;"/><path d="M131.844,9.331c-0.664,-0.119 -1.106,-0.197 -1.709,-0.305l-0.12,-0.021l0.054,-0.11c0.323,-0.661 0.564,-1.155 0.896,-1.832l0.093,-0.191l0.076,0.199c0.294,0.772 0.51,1.339 0.813,2.136l0.057,0.153l-0.16,-0.029ZM132.17,10.723c0,0.389 0.186,0.759 0.468,1.032c0.281,0.272 0.655,0.444 1.015,0.443c0.074,0 0.147,-0.007 0.218,-0.021c0.186,-0.038 0.33,-0.138 0.431,-0.275c0.102,-0.137 0.157,-0.311 0.157,-0.491c0,-0.103 -0.018,-0.207 -0.056,-0.307c-0.125,-0.326 -0.626,-1.747 -0.968,-2.636c-0.114,-0.296 -0.21,-0.534 -0.266,-0.646c-0.402,-0.818 -0.742,-1.662 -1.139,-2.472c-0.102,-0.208 -0.226,-0.344 -0.362,-0.429c-0.136,-0.085 -0.287,-0.122 -0.45,-0.122c-0.219,0 -0.459,0.068 -0.69,0.176c-0.185,0.084 -0.477,0.285 -0.61,0.487c-0.577,0.866 -0.904,1.848 -1.258,2.828c-0.354,0.978 -0.736,1.955 -1.434,2.798l-0.001,0.002l-0.007,0.011l-0.022,0.037c-0.018,0.031 -0.04,0.074 -0.061,0.124c-0.043,0.1 -0.081,0.229 -0.081,0.35c0.001,0.135 0.04,0.254 0.17,0.353c0.131,0.1 0.371,0.178 0.777,0.178l0.016,0c0.09,0 0.253,-0.029 0.414,-0.077c0.161,-0.048 0.326,-0.115 0.427,-0.183c0.069,-0.044 0.1,-0.091 0.099,-0.1c0.048,-0.255 0.2,-0.552 0.339,-0.792c0.14,-0.239 0.268,-0.418 0.269,-0.42l0.009,-0.013l0.014,-0.009c0.065,-0.044 0.144,-0.065 0.237,-0.08c0.093,-0.015 0.201,-0.02 0.319,-0.02c0.323,0 0.725,0.042 1.09,0.084c0.363,0.042 0.692,0.084 0.844,0.084l0.1,0l-0.008,0.099l0,0.007Z" style="fill:#231f20;"/><path d="M67.016,9.04c0.388,-0.801 0.727,-1.498 1.066,-2.196c0.078,0.018 0.157,0.036 0.235,0.054c0.121,0.706 0.243,1.411 0.368,2.142l-1.669,0ZM70.97,10.511c-0.228,-0.551 -0.4,-1.128 -0.563,-1.702c-0.277,-0.974 -0.462,-1.98 -0.82,-2.922c-0.156,-0.408 -0.596,-0.781 -0.999,-1.007c-0.611,-0.344 -1.511,-0.016 -1.768,0.489c-0.798,1.569 -1.584,3.147 -2.437,4.687c-0.38,0.687 -1.061,1.658 0.008,2.069c1.107,0.426 1.655,-0.662 1.896,-1.127c0.115,-0.219 0.489,-0.764 0.489,-0.764c0.314,-0.124 1.797,0.02 2.138,0.082c0.301,0.054 0.247,1.563 0.891,1.512c1.038,0 1.434,-0.666 1.165,-1.317" style="fill:#231f20;"/><path d="M117.061,10.516c0.149,-1.272 0.446,-2.82 0.612,-4.234c0.572,0.573 1.485,0.597 1.459,1.557c-0.036,1.374 -0.748,2.545 -2.071,2.677M120.408,6.452c-0.653,-0.536 -1.471,-0.865 -2.171,-1.351c-0.947,-0.656 -1.929,-0.387 -2.268,0.693c-0.079,0.248 -0.108,0.514 -0.15,0.772c-0.21,1.285 -0.354,2.584 -0.651,3.848c-0.14,0.596 -0.095,1.053 0.328,1.43c0.456,0.406 1.014,0.483 1.591,0.238c0.407,-0.172 0.798,-0.386 1.216,-0.52c1.775,-0.572 2.753,-1.852 2.786,-3.962c-0.046,-0.513 -0.3,-0.835 -0.681,-1.148" style="fill:#231f20;"/><path d="M107.199,24.446c-0.347,0.999 -0.525,1.742 -1.081,2.646c-0.37,0.601 -0.67,0.685 -0.91,0.624c-0.245,-0.108 -0.541,-0.458 -0.591,-0.974c-0.096,-0.983 0.106,-1.778 0.639,-2.698c0.169,-0.293 0.292,-0.616 0.708,-0.806c0.795,-0.164 1.51,0.416 1.235,1.208M109.022,23.585c-0.542,-1.426 -2.142,-2.182 -3.389,-1.766c-0.468,0.269 -0.9,0.578 -1.235,0.956c-0.402,0.454 -0.556,1.062 -0.844,1.59c-0.012,0.038 -0.026,0.077 -0.042,0.119c-0.214,0.53 -0.353,1.093 -0.483,1.652c-0.309,1.331 0.218,2.331 1.505,2.911c1.04,0.47 2.353,0.156 3.007,-0.856c0.532,-0.824 0.991,-1.721 1.32,-2.643c0.217,-0.607 0.374,-1.402 0.161,-1.963" style="fill:#231f20;"/><path d="M90.283,4.816c-0.169,-0.005 -0.285,-0.008 -0.377,-0.008c-0.121,0 -0.196,0.005 -0.294,0.017c-0.085,0.01 -0.19,0.027 -0.347,0.049c-0.035,0.648 -0.085,1.37 -0.085,2.098c0,1.271 0.154,2.553 0.786,3.468c0.733,1.066 1.761,1.69 2.811,1.689c0.165,0 0.331,-0.015 0.497,-0.046c0.574,-0.109 1.226,-0.501 1.752,-1.018c0.528,-0.516 0.93,-1.156 1.025,-1.74c0.196,-1.19 0.296,-2.315 0.296,-3.472c0,-0.383 -0.012,-0.77 -0.034,-1.164c-0.132,-0.019 -0.286,-0.03 -0.452,-0.03c-0.488,0 -1.064,0.086 -1.419,0.217c-0.008,0.148 -0.012,0.298 -0.012,0.451c0,0.456 0.024,0.932 0.024,1.409c0,0.763 -0.061,1.529 -0.389,2.215c-0.134,0.278 -0.35,0.591 -0.611,0.839c-0.26,0.248 -0.567,0.436 -0.892,0.438c-0.14,0 -0.282,-0.037 -0.414,-0.119c-0.133,-0.082 -0.257,-0.206 -0.369,-0.378c-0.434,-0.662 -0.555,-1.371 -0.554,-2.081c0,-0.508 0.061,-1.018 0.116,-1.519l0,0.001c0.019,-0.178 0.03,-0.333 0.03,-0.467c0,-0.17 -0.018,-0.305 -0.053,-0.41c-0.037,-0.105 -0.088,-0.18 -0.165,-0.241c-0.152,-0.122 -0.428,-0.185 -0.87,-0.198l0.003,-0.092l-0.003,0.092Z" style="fill:#231f20;"/><path d="M119.713,24.82l-0.001,0.006l-0.001,0.006c-0.164,0.694 -0.456,1.75 -0.974,2.458c-0.229,0.312 -0.523,0.471 -0.806,0.471c-0.193,0.001 -0.378,-0.076 -0.519,-0.219c-0.142,-0.144 -0.241,-0.351 -0.277,-0.612c-0.041,-0.292 -0.059,-0.59 -0.059,-0.89c0,-0.673 0.092,-1.356 0.225,-2.006c0.055,-0.269 0.187,-0.465 0.368,-0.586c0.181,-0.12 0.402,-0.167 0.635,-0.167c0.184,0 0.377,0.029 0.568,0.077c0.332,0.083 0.554,0.237 0.686,0.441c0.132,0.204 0.172,0.446 0.172,0.701c0,0.104 -0.007,0.211 -0.017,0.32M121.733,24.57c-0.343,-2.216 -2.141,-2.878 -3.831,-2.857c-0.79,0.008 -1.805,0.089 -2.147,0.998c-0.352,0.934 -0.599,2.96 -0.564,2.967c0,0.18 -0.011,0.36 0.002,0.538c0.187,2.556 3.03,3.731 4.719,2.634c0.989,-0.643 2.008,-3.069 1.821,-4.28" style="fill:#231f20;"/><path d="M67.646,29.075c-0.66,0.013 -1.265,-0.487 -1.22,-1.143c0.016,-0.233 0.385,-0.528 0.657,-0.641c0.649,-0.268 1.533,-0.193 1.582,-1.216c0.041,-0.885 -0.067,-1.722 -0.618,-2.482c-0.536,-0.739 -0.869,-1.545 -0.875,-2.523c-0.007,-1.138 0.599,-1.762 1.972,-2.027c0.522,-0.101 1.125,-0.271 1.577,0.29c0.973,1.208 -0.749,1.042 -1.216,1.526c-0.508,0.523 -0.201,1.179 0.028,1.787c0.306,0.808 0.807,1.549 1.069,2.369c0.616,1.932 -0.941,4.021 -2.956,4.06" style="fill:#231f20;"/><path d="M144.389,5.29c0.106,-0.547 0.539,-0.664 1.008,-0.609c0.571,0.067 1.066,0.641 0.95,1.107c-0.172,0.696 -0.345,1.4 -0.619,2.059c-0.331,0.797 -0.788,1.54 -1.149,2.326c-0.2,0.435 -0.322,0.907 -0.471,1.365c-0.199,0.609 -0.644,0.829 -1.213,0.59c-0.538,-0.227 -0.95,-0.991 -0.639,-1.385c0.364,-0.461 0.804,-1.207 0.796,-1.611c0,0 -0.572,-0.679 -1.05,-1.18c-0.471,-0.494 -0.774,-1.144 -1.191,-1.694c-0.361,-0.474 -0.555,-0.891 0.1,-1.259c0.467,-0.262 1.15,-0.005 1.445,0.494c0.425,0.722 0.879,1.427 1.322,2.138c0.111,-0.021 0.565,-1.585 0.711,-2.341" style="fill:#231f20;"/><path d="M83.882,6.119c0.042,-0.112 0.066,-0.251 0.066,-0.396c0,-0.177 -0.036,-0.362 -0.104,-0.516c-0.069,-0.155 -0.168,-0.276 -0.292,-0.347c-0.083,-0.047 -0.179,-0.075 -0.299,-0.075l-0.036,0.001l-0.026,0.001l-0.025,-0.006c-0.21,-0.05 -0.447,-0.071 -0.701,-0.071c-0.449,0 -0.949,0.065 -1.445,0.133c-0.496,0.067 -0.988,0.138 -1.433,0.143l-0.02,0.001c-0.321,-0.002 -0.614,-0.078 -0.881,-0.091c-0.218,-0.013 -0.469,-0.059 -0.732,-0.1c-0.262,-0.041 -0.534,-0.078 -0.777,-0.078c-0.196,0 -0.372,0.024 -0.509,0.08c-0.137,0.057 -0.236,0.136 -0.31,0.271c-0.049,0.09 -0.086,0.208 -0.101,0.365l0,0.001c-0.004,0.039 -0.006,0.076 -0.006,0.112c0.001,0.212 0.059,0.356 0.155,0.476c0.097,0.118 0.242,0.213 0.429,0.284c0.372,0.143 0.894,0.181 1.382,0.18c0.376,0 0.731,-0.02 0.999,-0.02c0.022,0 0.043,0 0.063,0l0.182,0.003l0,0.182c0,0.871 0.009,1.712 0.009,2.542c0,0.577 -0.004,1.149 -0.019,1.722l0,0.004l-0.001,0.021c-0.001,0.298 0.144,0.625 0.38,0.872c0.236,0.248 0.553,0.409 0.885,0.408l0.019,0c0.155,-0.002 0.279,-0.028 0.378,-0.069c0.1,-0.041 0.174,-0.096 0.235,-0.166c0.119,-0.138 0.185,-0.35 0.185,-0.631c0,-0.036 -0.001,-0.074 -0.004,-0.112c-0.03,-0.536 -0.147,-1.091 -0.148,-1.67l0,-0.012l0,-0.038c0,-0.327 -0.011,-0.738 -0.011,-1.162c0.001,-0.604 0.02,-1.23 0.132,-1.702c0.015,-0.064 0.054,-0.11 0.089,-0.138c0.036,-0.028 0.071,-0.043 0.105,-0.056c0.068,-0.025 0.139,-0.037 0.221,-0.047c0.162,-0.019 0.362,-0.022 0.577,-0.023c0.193,0 0.397,0.004 0.585,0.004c0.244,0 0.466,-0.007 0.583,-0.029c0.036,-0.006 0.058,-0.014 0.062,-0.016c0.06,-0.044 0.118,-0.125 0.159,-0.235" style="fill:#231f20;"/><path d="M52.355,10.211c-0.124,0.06 -0.225,0.154 -0.303,0.31c-0.095,0.194 -0.136,0.363 -0.136,0.511c0.001,0.189 0.065,0.345 0.183,0.482c0.118,0.137 0.291,0.253 0.502,0.345c0.422,0.184 0.993,0.27 1.544,0.27c0.347,0 0.688,-0.034 0.977,-0.096c0.29,-0.062 0.529,-0.153 0.671,-0.258c0.429,-0.315 0.836,-0.778 1.133,-1.299c0.298,-0.521 0.485,-1.1 0.485,-1.642c0,-0.096 -0.006,-0.191 -0.018,-0.285c-0.077,-0.6 -0.278,-1.225 -0.566,-1.764c-0.087,-0.163 -0.293,-0.48 -0.516,-0.843c-0.222,-0.365 -0.461,-0.777 -0.619,-1.145c-0.105,-0.246 -0.176,-0.47 -0.176,-0.661c-0.001,-0.116 0.028,-0.227 0.107,-0.308c0.078,-0.081 0.195,-0.118 0.335,-0.117c0.179,0 0.408,0.056 0.711,0.176l-0.034,0.085l0.034,-0.085c0.113,0.045 0.232,0.089 0.353,0.13c0.009,-0.012 0.016,-0.023 0.027,-0.037c0.038,-0.05 0.089,-0.116 0.146,-0.193c0.113,-0.152 0.248,-0.348 0.336,-0.532c0.058,-0.123 0.093,-0.241 0.093,-0.331c0,-0.057 -0.013,-0.1 -0.038,-0.136c-0.025,-0.036 -0.065,-0.069 -0.137,-0.095c-0.574,-0.204 -1.189,-0.471 -1.736,-0.469c-0.071,0 -0.141,0.004 -0.209,0.013c-0.533,0.072 -1.021,0.385 -1.376,0.825c-0.355,0.439 -0.574,1.004 -0.573,1.566c0,0.165 0.018,0.329 0.058,0.491c0.15,0.619 0.496,1.184 0.834,1.763c0.337,0.579 0.666,1.173 0.761,1.858c0.027,0.195 0.04,0.368 0.04,0.521c0,0.398 -0.088,0.668 -0.257,0.838c-0.17,0.169 -0.402,0.22 -0.647,0.22c-0.245,-0.001 -0.513,-0.05 -0.779,-0.098c-0.267,-0.048 -0.533,-0.094 -0.766,-0.094c-0.169,0 -0.32,0.024 -0.444,0.084" style="fill:#231f20;"/><path d="M133.682,28.119c-0.744,-0.198 -1.447,-0.425 -2.166,-0.565c-1.07,-0.21 -1.434,-0.799 -1.088,-1.813c0.304,-0.894 0.607,-1.792 0.833,-2.706c0.088,-0.355 0.097,-0.975 -0.097,-1.098c-0.349,-0.223 -0.881,-0.223 -1.332,-0.201c-0.443,0.022 -0.582,0.352 -0.528,0.797c0.036,0.295 0.041,0.629 -0.06,0.902c-0.35,0.945 -0.746,1.873 -1.139,2.802c-0.219,0.519 -0.173,0.944 0.274,1.343c1.243,1.109 2.75,1.527 4.349,1.678c0.682,0.065 1.449,-1.121 0.954,-1.139" style="fill:#231f20;"/><path d="M81.219,21.624c0.394,-0.083 0.834,-0.113 1.328,-0.083c0.205,0.412 0.338,0.98 -0.072,1.305c-0.009,0.008 -0.722,-0.058 -0.894,0.017c-0.243,0.108 -0.543,0.485 -0.702,0.703c-0.45,0.613 -0.693,1.407 -0.812,2.147c-0.34,2.126 1.837,1.939 3.186,2.04c0.447,0.069 0.126,0.77 -0.002,1.193c-1.203,0.175 -2.375,0.257 -3.494,-0.329c-1.01,-0.529 -2.064,-2.232 -1.515,-3.808c0.598,-1.713 1.439,-2.86 2.977,-3.185" style="fill:#231f20;"/><path d="M36.352,11.883c-0.29,0.281 -0.498,0.303 -0.668,0.198c-0.202,-1.148 -0.462,-2.27 -0.872,-3.361c0.189,-0.156 3.589,-0.618 3.961,0.222c0.651,1.264 -1.884,2.42 -2.421,2.941M32.122,14.066c-0.978,0.253 -3.701,2.032 -5.895,3.026c-0.716,0.325 -6.019,1.847 -7.962,2.191c-1.774,0.315 -6.495,0.946 -7.137,0.736c-0.286,-0.094 -0.446,-0.183 -0.521,-0.467c-0.605,-2.264 -0.93,-4.631 -0.365,-6.859c1.164,-4.591 5.038,-7.26 6.61,-8.13c2.731,-1.511 6.94,-1.822 8.792,-1.199c1.309,0.44 2.521,0.967 3.49,2.111c0.908,1.074 1.844,2.129 2.36,3.409c0.559,1.388 1.049,2.832 1.173,4.354c0.209,0.531 -0.22,0.744 -0.545,0.828M32.135,19.303c-0.442,1.899 -2.292,5.227 -3.721,6.268c-1.379,1.005 -2.734,1.976 -4.432,2.429c-1.357,0.361 -2.648,0.132 -3.988,0.039c-1.609,-0.112 -5.702,-1.539 -6.538,-3.883c-0.111,-0.702 0.286,-0.776 0.854,-0.749c0.677,0.033 4.634,-0.55 5.915,-0.881c2.244,-0.896 9.98,-3.11 11.364,-3.842c0.189,-0.1 0.398,-0.316 0.611,-0.212c-0.028,0.276 -0.049,0.554 -0.065,0.831M4.186,19.172c-0.434,-0.67 0.066,-1.24 0.386,-1.773c0.435,-0.724 1.15,-1.291 1.995,-1.728c0.124,-0.017 0.278,-0.049 0.421,-0.062c0.005,1.534 0.055,2.997 0.536,4.479c-1.186,-0.11 -2.445,-0.048 -3.338,-0.916M39.915,6.39c-1.828,-0.516 -4.159,-0.814 -6.083,-0.453c0,0 -0.541,-0.721 -1.218,-1.612c-1.482,-1.95 -5.757,-3.757 -6.843,-4.023c-2.28,-0.557 -6.436,-0.237 -7.389,0.116c-1.544,0.572 -7.637,1.972 -9.888,7.108c-0.27,0.368 -0.936,2.44 -1.357,4.063c0,0 -0.598,0.221 -1.026,0.442c-0.285,0.147 -4.67,3.154 -5.144,4.379c-0.166,0.43 -1.405,1.913 -0.803,3.515c0.367,0.979 1.241,1.794 2.092,2.206c1.295,0.625 2.606,0.994 4.231,1.174c2.586,0.286 2.436,0.117 3.705,2.179c0.725,1.179 1.762,2.182 2.846,3.031c0.852,0.668 1.831,1.217 2.924,1.58c2.229,0.739 4.407,1.548 6.826,1.363c0.997,-0.075 2.041,-0.186 2.937,-0.439c0.784,-0.221 1.649,-0.701 2.436,-1.168c1.464,-0.869 2.821,-1.858 3.99,-3.059c1.886,-1.937 2.578,-4.515 3.487,-6.972c0.321,-0.868 0.446,-2.322 0.358,-3.241c0,0 0.2,-0.205 0.501,-0.37c0.504,-0.278 0.885,-0.705 1.377,-0.979c1.593,-0.887 3.007,-1.96 3.95,-3.57c0.326,-0.558 0.527,-1.194 0.684,-1.771c0.301,-1.109 -1.092,-3.075 -2.593,-3.499" style="fill:#231f20;"/></g></svg>