<?xml version="1.0" standalone="no"?><!DOCTYPE svg PUBLIC "-//W3C//DTD SVG 1.1//EN" "http://www.w3.org/Graphics/SVG/1.1/DTD/svg11.dtd"><svg width="100%" height="100%" viewBox="0 0 101 54" version="1.1" xmlns="http://www.w3.org/2000/svg" xmlns:xlink="http://www.w3.org/1999/xlink" xml:space="preserve" style="fill-rule:evenodd;clip-rule:evenodd;stroke-linejoin:round;stroke-miterlimit:1.41421;"><g id="unicef"><path d="M86.674,0.014c-5.164,0 -9.365,4.201 -9.365,9.366c0,5.162 4.201,9.364 9.365,9.364c5.162,0 9.364,-4.202 9.364,-9.364c0,-5.165 -4.202,-9.366 -9.364,-9.366M93.978,4.153c-0.479,0.324 -0.984,0.615 -1.507,0.873c-0.309,-0.619 -0.684,-1.207 -1.118,-1.75c0.384,-0.234 0.751,-0.496 1.09,-0.781c0.58,0.486 1.096,1.044 1.535,1.658M90.038,1.046c0.747,0.302 1.451,0.707 2.099,1.204c-0.322,0.267 -0.67,0.51 -1.033,0.728c-0.459,-0.527 -0.977,-1.005 -1.541,-1.425c0.171,-0.157 0.331,-0.325 0.475,-0.507M90.764,3.172c-0.503,0.271 -1.033,0.493 -1.577,0.659c-0.228,-0.521 -0.49,-1.034 -0.782,-1.526c0.302,-0.134 0.588,-0.299 0.855,-0.501c0.548,0.4 1.053,0.86 1.504,1.368M89.657,0.904c-0.128,0.151 -0.265,0.292 -0.415,0.422c-0.494,-0.338 -1.02,-0.627 -1.569,-0.867c0.682,0.073 1.347,0.22 1.984,0.445M88.924,1.573c-0.226,0.16 -0.466,0.294 -0.719,0.402c-0.271,-0.43 -0.577,-0.849 -0.903,-1.258c0.568,0.233 1.112,0.52 1.622,0.856M86.866,0.782c0.344,0.416 0.669,0.86 0.967,1.325c-0.314,0.097 -0.64,0.155 -0.967,0.17l0,-1.495ZM86.866,2.664c0.402,-0.019 0.797,-0.09 1.177,-0.218c0.287,0.477 0.544,0.976 0.769,1.49c-0.637,0.164 -1.29,0.254 -1.946,0.268l0,-1.54ZM86.476,0.8l0,1.477c-0.322,-0.017 -0.643,-0.075 -0.953,-0.17c0.288,-0.449 0.608,-0.887 0.953,-1.307M85.154,1.976c-0.257,-0.109 -0.496,-0.244 -0.719,-0.403c0.505,-0.334 1.047,-0.619 1.615,-0.853c-0.319,0.4 -0.622,0.82 -0.896,1.256M85.694,0.454c-0.553,0.241 -1.083,0.531 -1.581,0.872c-0.152,-0.136 -0.288,-0.277 -0.416,-0.424c0.646,-0.226 1.313,-0.375 1.997,-0.448M92.111,16.528c-1.248,-0.685 -1.271,-1.632 -1.205,-1.981c0.066,-0.355 0.309,-0.199 0.465,-0.199c0.818,0 1.679,-0.243 2.74,-1.326c1.197,-1.222 1.573,-3.935 -0.267,-5.704c-1.981,-1.907 -4.089,-1.574 -5.447,0.141c-0.279,0.351 -0.958,0.608 -1.547,0.588c-0.871,-0.033 -0.322,0.653 -0.322,0.795c0,0.145 -0.133,0.245 -0.21,0.223c-0.296,-0.085 -0.177,0.353 -0.177,0.486c0,0.132 -0.123,0.2 -0.187,0.2c-0.367,0 -0.266,0.329 -0.254,0.42c0.01,0.087 -0.023,0.24 -0.145,0.307c-0.117,0.067 -0.253,0.355 -0.253,0.576c0,0.398 0.364,0.674 0.974,1.128c0.605,0.454 0.683,0.884 0.695,1.194c0.011,0.309 0.039,0.809 0.178,1.139c0.164,0.397 0.142,1.127 -0.698,1.16c-1.027,0.041 -2.852,0.862 -3.006,0.918c-0.579,0.205 -1.345,0.28 -1.943,0.13c-0.322,-0.228 -0.629,-0.477 -0.919,-0.745c-0.12,-0.413 0.088,-0.857 0.298,-1.155c0.342,0.343 0.851,0.321 1.137,0.331c0.287,0.012 1.691,-0.209 1.89,-0.275c0.2,-0.067 0.288,-0.044 0.409,0c0.536,0.194 1.271,0.253 1.57,-0.774c0.298,-1.028 -0.408,-0.74 -0.497,-0.697c-0.088,0.046 -0.211,0.034 -0.167,-0.053c0.132,-0.262 -0.064,-0.235 -0.177,-0.245c-0.285,-0.029 -0.661,0.276 -0.783,0.386c-0.123,0.112 -0.243,0.1 -0.288,0.078c-0.381,-0.189 -1.516,0.084 -1.869,-0.531c0.033,-0.165 -0.288,-2.664 -0.451,-3.094c-0.037,-0.093 -0.067,-0.243 0.043,-0.408c0.288,-0.433 1.083,0.031 1.515,0.021c0.516,-0.014 0.599,-0.229 0.741,-0.404c0.135,-0.169 0.234,-0.074 0.309,-0.12c0.094,-0.062 0.005,-0.183 0.038,-0.249c0.035,-0.066 0.073,-0.034 0.16,-0.111c0.089,-0.079 -0.012,-0.243 0.033,-0.31c0.128,-0.191 0.475,-0.038 0.267,-0.54c-0.115,-0.276 0.044,-0.576 0.198,-0.774c0.251,-0.323 1.218,-1.684 -0.487,-3.096c-1.624,-1.347 -3.272,-1.238 -4.333,-0.089c-1.059,1.149 -0.531,2.831 -0.42,3.272c0.111,0.443 -0.208,0.844 -0.575,1.018c-0.29,0.137 -0.953,0.578 -1.452,1.014c0.08,-3.606 2.269,-6.779 5.625,-8.13c0.143,0.179 0.302,0.348 0.475,0.507c-0.375,0.273 -1.19,1.003 -1.19,1.003c0,0 0.111,0.017 0.214,0.042c0.073,0.017 0.226,0.063 0.226,0.063c0,0 0.718,-0.611 1.055,-0.854c0.262,0.199 0.55,0.365 0.854,0.499c-0.164,0.277 -0.572,1.047 -0.572,1.047c0,0 0.094,0.056 0.179,0.113c0.085,0.057 0.138,0.107 0.138,0.107c0,0 0.447,-0.843 0.616,-1.124c0.376,0.125 0.767,0.198 1.164,0.215l0,1.543c-0.219,-0.006 -0.786,-0.029 -1.015,-0.053l-0.144,-0.014l0.081,0.119c0.06,0.09 0.108,0.178 0.149,0.258l0.017,0.034l0.037,0.003c0.166,0.014 0.683,0.031 0.875,0.037l0,2.806l0.39,0l0,-0.642c0.571,-0.027 1.045,-0.066 1.62,-0.116l0.025,-0.004l0.504,-0.445l-0.275,0.024c-0.607,0.079 -1.139,0.116 -1.623,0.143c0,0 -0.164,0.009 -0.251,0.014l0,-1.781c0.705,-0.015 1.41,-0.113 2.101,-0.294c0.188,0.462 0.543,1.587 0.543,1.587l0.367,-0.115c0,0 -0.355,-1.116 -0.541,-1.579c0.583,-0.181 1.148,-0.422 1.681,-0.715c0.431,0.529 0.802,1.107 1.109,1.72c-0.276,0.128 -0.78,0.307 -0.78,0.307c0.404,0.044 0.71,0.14 0.71,0.14c0,0 0.143,-0.061 0.234,-0.101c0.036,0.08 0.106,0.243 0.106,0.243l0.504,0.224l-0.059,-0.14c0,0 -0.166,-0.4 -0.206,-0.492c0.534,-0.263 1.059,-0.565 1.561,-0.903c0.955,1.461 1.462,3.156 1.462,4.911c0,2.912 -1.393,5.504 -3.547,7.148" style="fill:#00aeef;fill-rule:nonzero;"/><path d="M73.913,4.935l-0.063,0.171c-0.088,0.235 -0.246,0.728 -0.331,1.385c-0.118,0.93 -0.091,2.245 0.717,3.227c-0.002,-0.001 0.088,0.116 0.088,0.116l0.094,0.119l0.12,-0.596c0.133,-1.056 -0.043,-3.268 -0.43,-4.255l-0.134,-0.335l-0.061,0.168Z" style="fill:#00aeef;fill-rule:nonzero;"/><path d="M72.983,8.739l-0.012,0.174c-0.067,0.946 -0.019,3.282 1.872,4.52l0.226,0.145l-0.011,-0.265c-0.033,-0.886 -1.067,-3.531 -1.844,-4.48l-0.219,-0.268l-0.012,0.174Z" style="fill:#00aeef;fill-rule:nonzero;"/><path d="M73.308,12.918l0.032,0.16c0.277,1.342 1.549,3.516 3.515,4.146l0.268,0.087l-0.097,-0.265c-0.366,-1.004 -2.26,-3.343 -3.478,-4.113l-0.274,-0.174l0.034,0.159Z" style="fill:#00aeef;fill-rule:nonzero;"/><path d="M76.396,7.447l-0.111,0.104c-0.375,0.358 -1.587,1.646 -1.483,3.243c0.016,0.245 0.073,0.507 0.167,0.783l0.085,0.255l0.158,-0.22c0.578,-0.815 1.347,-2.966 1.305,-3.967l-0.013,-0.302l-0.108,0.104Z" style="fill:#00aeef;fill-rule:nonzero;"/><path d="M76.458,10.216l-0.083,0.122c-0.612,0.908 -0.923,1.839 -0.904,2.698c0.017,0.635 0.22,1.243 0.603,1.807l0.127,0.19l0.108,-0.201c0.265,-0.497 0.473,-2.107 0.443,-3.38c-0.012,-0.451 -0.057,-0.823 -0.132,-1.077l-0.08,-0.281l-0.082,0.122Z" style="fill:#00aeef;fill-rule:nonzero;"/><path d="M77.167,13.176l-0.038,0.128c-0.184,0.59 -0.271,1.166 -0.256,1.713c0.036,1.238 0.584,2.207 1.631,2.878l0.177,0.111l0.038,-0.239c0,-0.003 0.016,-0.189 0.016,-0.189c-0.029,-1.006 -0.779,-3.54 -1.366,-4.315l-0.162,-0.213l-0.04,0.127Z" style="fill:#00aeef;fill-rule:nonzero;"/><path d="M75.104,17.103l0.076,0.128c0.788,1.32 2.125,3.024 4.626,2.587l0.208,-0.037l-0.118,-0.175c-0.467,-0.694 -3.502,-2.407 -4.575,-2.582l-0.293,-0.049l0.076,0.128Z" style="fill:#00aeef;fill-rule:nonzero;"/><path d="M78.804,20.457l-0.393,0.106l0.377,0.154c1.59,0.651 3.584,0.843 4.74,0.455c0.434,-0.149 0.697,-0.386 1.02,-0.701c2.034,0.21 3.94,1.902 5.05,3.284l0.06,0.069l0.086,-0.027c0.125,-0.043 0.317,-0.192 0.398,-0.279l0.079,-0.084l-0.07,-0.093c-1.159,-1.515 -2.974,-2.454 -3.053,-2.492c-1.633,-0.796 -4.516,-1.417 -8.294,-0.392" style="fill:#00aeef;fill-rule:nonzero;"/><path d="M78.888,16.229l0.022,0.133c0.238,1.498 0.847,3.464 3.378,3.247l0.162,-0.013l-0.041,-0.159c-0.171,-0.681 -2.49,-2.659 -3.3,-3.216l-0.242,-0.126l0.021,0.134Z" style="fill:#00aeef;fill-rule:nonzero;"/><path d="M99.41,4.767l-0.133,0.335c-0.389,0.987 -0.565,3.199 -0.431,4.254l0.12,0.597l0.094,-0.119l0.089,-0.116c0.807,-0.982 0.835,-2.297 0.716,-3.227c-0.085,-0.657 -0.243,-1.15 -0.329,-1.385l-0.064,-0.171l-0.062,-0.168Z" style="fill:#00aeef;fill-rule:nonzero;"/><path d="M100.39,8.565l-0.221,0.268c-0.774,0.948 -1.81,3.594 -1.842,4.48l-0.009,0.265c0,0 0.222,-0.143 0.222,-0.145c1.892,-1.238 1.94,-3.573 1.874,-4.52l-0.013,-0.174l-0.011,-0.174Z" style="fill:#00aeef;fill-rule:nonzero;"/><path d="M100.11,12.758l-0.275,0.174c-1.217,0.771 -3.111,3.11 -3.477,4.113l-0.099,0.265l0.271,-0.087c1.965,-0.63 3.237,-2.804 3.513,-4.145l0.036,-0.161l0.031,-0.159Z" style="fill:#00aeef;fill-rule:nonzero;"/><path d="M96.879,7.343l-0.012,0.304c-0.04,0.999 0.726,3.15 1.305,3.965l0.158,0.22l0.087,-0.255c0.093,-0.275 0.149,-0.538 0.164,-0.783c0.106,-1.596 -1.106,-2.885 -1.481,-3.242l-0.11,-0.105l-0.111,-0.104Z" style="fill:#00aeef;fill-rule:nonzero;"/><path d="M96.846,10.095l-0.084,0.281c-0.075,0.254 -0.12,0.627 -0.13,1.076c-0.032,1.273 0.178,2.884 0.441,3.38l0.108,0.202l0.13,-0.191c0.382,-0.564 0.584,-1.171 0.599,-1.806c0.021,-0.859 -0.289,-1.791 -0.902,-2.698l-0.081,-0.122l-0.081,-0.122Z" style="fill:#00aeef;fill-rule:nonzero;"/><path d="M96.174,13.051l-0.161,0.212c-0.586,0.774 -1.337,3.308 -1.364,4.315c0,0 0.014,0.185 0.015,0.19l0.038,0.238l0.177,-0.112c1.048,-0.67 1.597,-1.639 1.632,-2.877c0.015,-0.547 -0.071,-1.123 -0.256,-1.712l-0.042,-0.128l-0.039,-0.126Z" style="fill:#00aeef;fill-rule:nonzero;"/><path d="M98.355,16.975l-0.292,0.048c-1.073,0.176 -4.109,1.888 -4.576,2.583l-0.118,0.175l0.209,0.036c2.502,0.438 3.838,-1.266 4.626,-2.587l0.075,-0.127l0.076,-0.128Z" style="fill:#00aeef;fill-rule:nonzero;"/><path d="M86.287,20.849c-0.08,0.038 -1.895,0.977 -3.052,2.492l-0.071,0.093l0.079,0.085c0.081,0.086 0.272,0.235 0.398,0.278l0.085,0.027l0.06,-0.069c1.109,-1.381 3.014,-3.073 5.049,-3.283c0.323,0.314 0.586,0.551 1.023,0.7c1.155,0.389 3.147,0.196 4.739,-0.454l0.376,-0.155l-0.392,-0.106c-3.78,-1.025 -6.662,-0.404 -8.294,0.392" style="fill:#00aeef;fill-rule:nonzero;"/><path d="M94.517,16.095l-0.243,0.126c-0.81,0.556 -3.128,2.535 -3.299,3.217l-0.04,0.157l0.161,0.013c2.531,0.218 3.139,-1.748 3.378,-3.246l0.022,-0.133l0.021,-0.134Z" style="fill:#00aeef;fill-rule:nonzero;"/><path d="M29.793,0.675l3.198,0l0,2.916l-3.198,0l0,-2.916ZM30.047,6.903l2.69,0l0,14.207l-2.69,0l0,-14.207Z" style="fill:#00aeef;fill-rule:nonzero;"/><path d="M9.75,6.915l2.689,0l0,14.208l-2.633,0l0,-2.095l-0.056,0c-1.076,1.783 -2.887,2.519 -4.87,2.519c-2.97,0 -4.669,-2.264 -4.669,-5.123l0,-9.509l2.69,0l0,8.406c0,2.463 0.566,4.274 3.141,4.274c1.105,0 2.604,-0.567 3.169,-2.037c0.508,-1.331 0.539,-3.001 0.539,-3.341l0,-7.302Z" style="fill:#00aeef;fill-rule:nonzero;"/><path d="M17.807,9.008l0.057,0c0.905,-1.783 2.886,-2.517 4.302,-2.517c0.989,0 5.376,0.254 5.376,4.81l0,9.821l-2.687,0l0,-8.943c0,-2.35 -0.991,-3.622 -3.255,-3.622c0,0 -1.473,-0.085 -2.604,1.047c-0.396,0.395 -1.132,1.018 -1.132,3.792l0,7.726l-2.689,0l0,-14.208l2.632,0l0,2.094Z" style="fill:#00aeef;fill-rule:nonzero;"/><path d="M43.995,11.472c-0.141,-1.772 -0.983,-3.007 -2.896,-3.007c-2.557,0 -3.543,2.218 -3.543,5.538c0,3.318 0.986,5.541 3.543,5.541c1.769,0 2.866,-1.15 3.006,-3.179l2.674,0c-0.227,3.179 -2.587,5.117 -5.71,5.117c-4.525,0 -6.325,-3.203 -6.325,-7.367c0,-4.138 2.079,-7.594 6.554,-7.594c2.981,0 5.228,1.887 5.364,4.951l-2.667,0Z" style="fill:#00aeef;fill-rule:nonzero;"/><path d="M50.794,14.508c-0.197,2.475 0.816,5.036 3.541,5.036c2.082,0 3.121,-0.814 3.429,-2.872l2.815,0c-0.423,3.21 -2.898,4.81 -6.27,4.81c-4.528,0 -6.33,-3.203 -6.33,-7.366c0,-4.139 2.084,-7.594 6.554,-7.594c4.217,0.087 6.211,2.755 6.211,6.668l0,1.318l-9.95,0ZM57.936,12.655c0.057,-2.361 -1.015,-4.19 -3.601,-4.19c-2.224,0 -3.541,1.878 -3.541,4.19l7.142,0Z" style="fill:#00aeef;fill-rule:nonzero;"/><path d="M63.772,21.061l0,-12.259l-2.429,0l0,-1.861l2.429,0l0,-3.033c0.087,-3.094 2.417,-3.908 4.415,-3.908c0.646,0 1.268,0.167 1.916,0.278l0,2.221c-0.455,-0.024 -0.903,-0.086 -1.355,-0.086c-1.515,0 -2.388,0.399 -2.305,1.942l0,2.586l3.263,0l0,1.861l-3.263,0l0,12.259l-2.671,0Z" style="fill:#00aeef;fill-rule:nonzero;"/><rect x="0.157" y="30.853" width="99.277" height="0.54" style="fill:#00aeef;fill-rule:nonzero;"/><path d="M1.804,50.191l0,-7.984l-1.804,0l0,-0.983l1.804,0l0,-1.911c0,-1.536 0.625,-2.232 2.162,-2.232c0.338,0 0.696,0.124 1.018,0.197l0,0.856c-0.215,-0.035 -0.447,-0.071 -0.661,-0.071c-1.465,0 -1.501,0.732 -1.447,2.019l0,1.142l2.036,0l0,0.983l-2.036,0l0,7.984l-1.072,0Z" style="fill:#00aeef;fill-rule:nonzero;"/><path d="M13.673,45.707c0,2.358 -1.322,4.751 -4.18,4.751c-2.857,0 -4.179,-2.393 -4.179,-4.751c0,-2.358 1.322,-4.751 4.179,-4.751c2.858,0 4.18,2.393 4.18,4.751M9.493,41.938c-2.161,0 -3.018,2.108 -3.018,3.769c0,1.661 0.857,3.768 3.018,3.768c2.161,0 3.019,-2.107 3.019,-3.768c0,-1.661 -0.858,-3.769 -3.019,-3.769" style="fill:#00aeef;fill-rule:nonzero;"/><path d="M16.305,50.191l-1.072,0l0,-6.948c0.018,-0.697 -0.053,-1.411 -0.089,-2.019l1.107,0l0.054,1.322l0.035,0c0.322,-0.911 1.126,-1.554 2.019,-1.589c0.357,-0.018 0.715,0 1.072,0.017l0,1.036c-0.214,-0.017 -0.446,-0.071 -0.661,-0.071c-1.59,0 -2.43,1.143 -2.465,2.858l0,5.394Z" style="fill:#00aeef;fill-rule:nonzero;"/><path d="M24.628,45.957c0.036,1.911 0.911,3.519 3.108,3.519c1.268,0 2.322,-0.911 2.59,-2.144l1.125,0c-0.553,2.144 -1.893,3.126 -4.054,3.126c-2.68,0 -3.93,-2.304 -3.93,-4.751c0,-2.43 1.34,-4.751 4.001,-4.751c3.001,0 4.09,2.197 4.09,5.001l-6.93,0ZM30.397,44.974c-0.125,-1.732 -1.053,-3.036 -2.911,-3.036c-1.751,0 -2.679,1.465 -2.822,3.036l5.733,0Z" style="fill:#00aeef;fill-rule:nonzero;"/><path d="M33.005,41.224l3.09,7.484l2.983,-7.484l1.179,0l-3.554,8.967l-1.215,0l-3.662,-8.967l1.179,0Z" style="fill:#00aeef;fill-rule:nonzero;"/><path d="M41.64,45.957c0.036,1.911 0.911,3.519 3.108,3.519c1.268,0 2.322,-0.911 2.59,-2.144l1.125,0c-0.553,2.144 -1.893,3.126 -4.054,3.126c-2.679,0 -3.929,-2.304 -3.929,-4.751c0,-2.43 1.339,-4.751 4.001,-4.751c3,0 4.089,2.197 4.089,5.001l-6.93,0ZM47.409,44.974c-0.125,-1.732 -1.053,-3.036 -2.911,-3.036c-1.751,0 -2.679,1.465 -2.822,3.036l5.733,0Z" style="fill:#00aeef;fill-rule:nonzero;"/><path d="M51.311,50.191l-1.072,0l0,-6.948c0.018,-0.697 -0.053,-1.411 -0.089,-2.019l1.107,0l0.054,1.322l0.035,0c0.322,-0.911 1.125,-1.554 2.019,-1.589c0.356,-0.018 0.715,0 1.072,0.017l0,1.036c-0.214,-0.017 -0.447,-0.071 -0.661,-0.071c-1.59,0 -2.43,1.143 -2.465,2.858l0,5.394Z" style="fill:#00aeef;fill-rule:nonzero;"/><path d="M56.74,41.224l3.018,7.502l3.001,-7.502l1.161,0l-4.948,12.396l-1.178,0l1.357,-3.429l-3.715,-8.967l1.304,0Z" style="fill:#00aeef;fill-rule:nonzero;"/><path d="M74.137,43.975c-0.089,-1.375 -0.964,-2.036 -2.447,-2.036c-1.643,0 -2.662,1.714 -2.662,3.75c0,2.054 1.019,3.787 2.662,3.787c1.393,0 2.358,-0.857 2.447,-2.089l1.161,0c-0.286,2.054 -1.465,3.072 -3.501,3.072c-2.679,0 -3.93,-2.304 -3.93,-4.751c0,-2.43 1.341,-4.752 4.002,-4.752c1.839,0 3.34,1.108 3.429,3.019l-1.161,0Z" style="fill:#00aeef;fill-rule:nonzero;"/><path d="M77.866,42.582l0.035,0c0.626,-1.107 1.644,-1.625 2.805,-1.625c2.929,0 3.161,2.589 3.161,3.625l0,5.609l-1.071,0l0,-5.787c0,-1.554 -0.893,-2.465 -2.358,-2.465c-1.768,0 -2.572,1.483 -2.572,3.09l0,5.162l-1.072,0l0,-12.896l1.072,0l0,5.287Z" style="fill:#00aeef;fill-rule:nonzero;"/><path d="M86.832,38.634l-1.25,0l0,-1.339l1.25,0l0,1.339ZM86.743,50.191l-1.072,0l0,-8.967l1.072,0l0,8.967Z" style="fill:#00aeef;fill-rule:nonzero;"/><rect x="88.849" y="37.295" width="1.072" height="12.896" style="fill:#00aeef;fill-rule:nonzero;"/><path d="M98.357,48.869l-0.036,-0.071c-0.732,1.071 -1.821,1.661 -3.072,1.661c-2.661,0 -3.68,-2.537 -3.68,-4.787c0,-2.322 1.019,-4.716 3.68,-4.716c1.197,0 2.447,0.571 3.072,1.626l0.036,-0.036l0,-5.251l1.072,0l0,10.878c0,0.696 0.053,1.411 0.089,2.018l-1.107,0l-0.054,-1.322ZM95.428,41.939c-2.037,0 -2.697,1.893 -2.697,3.607c0,1.662 0.482,3.93 2.536,3.93c2.34,0 3.054,-1.946 3.054,-3.983c0,-1.822 -0.803,-3.554 -2.893,-3.554" style="fill:#00aeef;fill-rule:nonzero;"/></g></svg>